G04 #@! TF.GenerationSoftware,KiCad,Pcbnew,8.0.5*
G04 #@! TF.CreationDate,2024-09-23T19:13:39-07:00*
G04 #@! TF.ProjectId,class 2a,636c6173-7320-4326-912e-6b696361645f,rev?*
G04 #@! TF.SameCoordinates,Original*
G04 #@! TF.FileFunction,Legend,Bot*
G04 #@! TF.FilePolarity,Positive*
%FSLAX46Y46*%
G04 Gerber Fmt 4.6, Leading zero omitted, Abs format (unit mm)*
G04 Created by KiCad (PCBNEW 8.0.5) date 2024-09-23 19:13:39*
%MOMM*%
%LPD*%
G01*
G04 APERTURE LIST*
G04 Aperture macros list*
%AMRoundRect*
0 Rectangle with rounded corners*
0 $1 Rounding radius*
0 $2 $3 $4 $5 $6 $7 $8 $9 X,Y pos of 4 corners*
0 Add a 4 corners polygon primitive as box body*
4,1,4,$2,$3,$4,$5,$6,$7,$8,$9,$2,$3,0*
0 Add four circle primitives for the rounded corners*
1,1,$1+$1,$2,$3*
1,1,$1+$1,$4,$5*
1,1,$1+$1,$6,$7*
1,1,$1+$1,$8,$9*
0 Add four rect primitives between the rounded corners*
20,1,$1+$1,$2,$3,$4,$5,0*
20,1,$1+$1,$4,$5,$6,$7,0*
20,1,$1+$1,$6,$7,$8,$9,0*
20,1,$1+$1,$8,$9,$2,$3,0*%
G04 Aperture macros list end*
%ADD10C,0.300000*%
%ADD11C,0.150000*%
%ADD12C,0.120000*%
%ADD13C,2.500000*%
%ADD14RoundRect,0.125000X0.225000X0.125000X-0.225000X0.125000X-0.225000X-0.125000X0.225000X-0.125000X0*%
%ADD15RoundRect,0.125000X0.275000X0.125000X-0.275000X0.125000X-0.275000X-0.125000X0.275000X-0.125000X0*%
%ADD16RoundRect,0.250000X1.250000X0.550000X-1.250000X0.550000X-1.250000X-0.550000X1.250000X-0.550000X0*%
%ADD17RoundRect,0.250000X-1.250000X-0.550000X1.250000X-0.550000X1.250000X0.550000X-1.250000X0.550000X0*%
%ADD18R,1.000000X0.800000*%
%ADD19C,0.900000*%
%ADD20R,0.700000X1.500000*%
%ADD21R,2.400000X0.740000*%
%ADD22RoundRect,0.250000X0.250000X1.500000X-0.250000X1.500000X-0.250000X-1.500000X0.250000X-1.500000X0*%
%ADD23RoundRect,0.250001X0.499999X1.449999X-0.499999X1.449999X-0.499999X-1.449999X0.499999X-1.449999X0*%
%ADD24C,0.650000*%
%ADD25RoundRect,0.150000X-0.194454X0.406586X-0.406586X0.194454X0.194454X-0.406586X0.406586X-0.194454X0*%
%ADD26RoundRect,0.075000X-0.300520X0.406586X-0.406586X0.300520X0.300520X-0.406586X0.406586X-0.300520X0*%
%ADD27RoundRect,0.250000X0.063640X1.124300X-1.124300X-0.063640X-0.063640X-1.124300X1.124300X0.063640X0*%
G04 APERTURE END LIST*
D10*
G36*
X156575836Y-72955530D02*
G01*
X156575836Y-73387107D01*
X155938728Y-73387107D01*
X155938728Y-72955530D01*
X155930103Y-72877912D01*
X155896438Y-72808551D01*
X155893666Y-72805321D01*
X155830338Y-72762495D01*
X155775696Y-72754030D01*
X155701070Y-72769795D01*
X155655529Y-72803855D01*
X155619510Y-72870364D01*
X155609412Y-72946098D01*
X155609367Y-72952233D01*
X155609367Y-74149145D01*
X155618273Y-74226372D01*
X155653033Y-74295070D01*
X155655895Y-74298255D01*
X155720576Y-74340163D01*
X155775696Y-74348447D01*
X155849859Y-74332334D01*
X155894398Y-74297522D01*
X155928988Y-74229687D01*
X155938685Y-74153793D01*
X155938728Y-74147679D01*
X155938728Y-73645027D01*
X156575836Y-73645027D01*
X156575836Y-74147679D01*
X156584742Y-74225477D01*
X156619502Y-74294681D01*
X156622364Y-74297889D01*
X156687045Y-74340103D01*
X156742165Y-74348447D01*
X156816328Y-74332450D01*
X156860867Y-74297889D01*
X156895457Y-74230546D01*
X156905154Y-74155213D01*
X156905197Y-74149145D01*
X156905197Y-72952233D01*
X156896853Y-72876007D01*
X156864282Y-72807771D01*
X156861600Y-72804588D01*
X156798286Y-72762374D01*
X156742165Y-72754030D01*
X156667539Y-72770026D01*
X156621998Y-72804588D01*
X156585979Y-72872368D01*
X156575881Y-72949305D01*
X156575836Y-72955530D01*
G37*
G36*
X154889030Y-73177244D02*
G01*
X154965486Y-73183942D01*
X155043397Y-73198593D01*
X155119904Y-73223709D01*
X155173165Y-73249217D01*
X155234284Y-73289824D01*
X155288432Y-73346074D01*
X155298187Y-73360133D01*
X155331026Y-73426931D01*
X155343020Y-73500680D01*
X155341197Y-73523313D01*
X155304918Y-73588974D01*
X155287457Y-73602392D01*
X155214793Y-73623412D01*
X155211214Y-73623392D01*
X155138955Y-73602529D01*
X155125610Y-73585706D01*
X155082902Y-73523761D01*
X155052470Y-73484795D01*
X154993509Y-73438398D01*
X154986845Y-73435026D01*
X154913567Y-73415150D01*
X154837437Y-73410554D01*
X154822919Y-73410739D01*
X154749211Y-73419600D01*
X154681733Y-73457815D01*
X154650421Y-73526401D01*
X154640333Y-73601064D01*
X154650255Y-73603839D01*
X154723666Y-73623465D01*
X154795306Y-73640997D01*
X154829797Y-73648866D01*
X154901666Y-73664410D01*
X154977022Y-73679832D01*
X155035662Y-73691417D01*
X155110012Y-73706577D01*
X155118178Y-73708394D01*
X155193856Y-73732551D01*
X155258656Y-73767585D01*
X155317375Y-73818684D01*
X155357367Y-73874555D01*
X155384251Y-73943946D01*
X155393212Y-74021650D01*
X155392496Y-74043523D01*
X155378722Y-74116923D01*
X155347417Y-74185415D01*
X155332052Y-74208125D01*
X155279038Y-74263623D01*
X155216624Y-74304483D01*
X155166933Y-74325735D01*
X155094187Y-74343252D01*
X155020986Y-74348447D01*
X154947942Y-74344440D01*
X154872883Y-74330775D01*
X154803366Y-74307414D01*
X154742923Y-74278620D01*
X154677510Y-74239674D01*
X154613223Y-74193108D01*
X154576437Y-74248036D01*
X154527493Y-74304849D01*
X154504939Y-74323923D01*
X154434803Y-74348447D01*
X154400914Y-74344690D01*
X154334419Y-74309979D01*
X154317146Y-74292515D01*
X154290089Y-74222418D01*
X154296684Y-74180927D01*
X154316467Y-74109944D01*
X154321116Y-74093875D01*
X154336764Y-74020845D01*
X154342479Y-73946179D01*
X154341610Y-73869956D01*
X154341179Y-73813555D01*
X154639967Y-73813555D01*
X154641255Y-73863491D01*
X154650307Y-73940387D01*
X154676604Y-74014689D01*
X154713929Y-74060912D01*
X154775888Y-74102983D01*
X154846871Y-74128811D01*
X154924266Y-74137421D01*
X154975477Y-74131702D01*
X155042968Y-74096755D01*
X155066538Y-74069499D01*
X155087664Y-73998203D01*
X155085841Y-73975139D01*
X155049562Y-73911374D01*
X155035068Y-73900267D01*
X154967497Y-73868510D01*
X154951942Y-73864638D01*
X154877765Y-73847923D01*
X154805197Y-73832606D01*
X154790685Y-73829523D01*
X154715328Y-73812350D01*
X154639967Y-73790840D01*
X154639967Y-73813555D01*
X154341179Y-73813555D01*
X154341014Y-73791939D01*
X154340928Y-73774159D01*
X154340708Y-73699123D01*
X154340647Y-73623412D01*
X154341047Y-73593999D01*
X154347036Y-73512215D01*
X154360212Y-73440109D01*
X154386077Y-73365125D01*
X154416525Y-73313921D01*
X154472991Y-73258811D01*
X154540682Y-73221510D01*
X154600194Y-73201635D01*
X154678913Y-73186063D01*
X154759347Y-73178255D01*
X154837804Y-73176081D01*
X154889030Y-73177244D01*
G37*
G36*
X154000883Y-73178141D02*
G01*
X154066607Y-73217480D01*
X154095183Y-73271519D01*
X154104709Y-73346441D01*
X154104709Y-74569731D01*
X154099309Y-74644944D01*
X154076499Y-74717742D01*
X154037333Y-74755609D01*
X153962193Y-74770498D01*
X153912391Y-74763569D01*
X153852284Y-74721222D01*
X153822660Y-74650196D01*
X153815647Y-74573394D01*
X153815647Y-74184682D01*
X153797768Y-74205177D01*
X153740185Y-74257710D01*
X153676795Y-74300087D01*
X153614189Y-74327620D01*
X153542231Y-74343724D01*
X153468701Y-74348447D01*
X153418234Y-74345882D01*
X153345625Y-74332418D01*
X153276726Y-74307414D01*
X153238773Y-74287797D01*
X153174430Y-74242527D01*
X153122120Y-74190544D01*
X153083888Y-74139482D01*
X153048196Y-74075379D01*
X153019172Y-74002965D01*
X153014646Y-73988962D01*
X152996400Y-73916498D01*
X152985452Y-73839955D01*
X152981868Y-73760799D01*
X153287717Y-73760799D01*
X153289400Y-73809177D01*
X153300116Y-73884525D01*
X153322888Y-73955338D01*
X153360347Y-74021359D01*
X153414479Y-74074773D01*
X153462190Y-74100154D01*
X153537577Y-74113974D01*
X153597797Y-74106787D01*
X153669256Y-74074844D01*
X153725888Y-74023115D01*
X153747841Y-73992783D01*
X153780585Y-73921170D01*
X153797329Y-73844238D01*
X153802092Y-73765928D01*
X153800223Y-73712873D01*
X153789455Y-73636841D01*
X153765901Y-73564333D01*
X153725522Y-73499947D01*
X153684924Y-73460838D01*
X153616042Y-73423125D01*
X153537577Y-73410554D01*
X153479304Y-73418478D01*
X153411181Y-73451953D01*
X153356995Y-73506383D01*
X153320689Y-73571755D01*
X153307842Y-73607473D01*
X153292353Y-73682179D01*
X153287717Y-73760799D01*
X152981868Y-73760799D01*
X152981802Y-73759333D01*
X152981866Y-73748137D01*
X152985855Y-73672367D01*
X152998014Y-73591355D01*
X153018279Y-73516296D01*
X153046649Y-73447191D01*
X153067962Y-73407293D01*
X153112185Y-73343276D01*
X153163943Y-73289287D01*
X153223236Y-73245324D01*
X153244443Y-73232950D01*
X153317831Y-73200492D01*
X153395368Y-73181558D01*
X153468701Y-73176081D01*
X153522762Y-73179081D01*
X153598445Y-73194829D01*
X153667636Y-73224075D01*
X153699630Y-73242901D01*
X153762234Y-73290319D01*
X153815647Y-73346807D01*
X153815647Y-73345708D01*
X153822420Y-73285374D01*
X153856680Y-73218946D01*
X153890580Y-73191486D01*
X153962193Y-73173883D01*
X154000883Y-73178141D01*
G37*
G36*
X152702488Y-73178141D02*
G01*
X152768212Y-73217480D01*
X152796788Y-73271519D01*
X152806314Y-73346441D01*
X152806314Y-74569731D01*
X152800914Y-74644944D01*
X152778104Y-74717742D01*
X152738938Y-74755609D01*
X152663798Y-74770498D01*
X152613996Y-74763569D01*
X152553889Y-74721222D01*
X152524265Y-74650196D01*
X152517253Y-74573394D01*
X152517253Y-74184682D01*
X152499373Y-74205177D01*
X152441790Y-74257710D01*
X152378400Y-74300087D01*
X152315794Y-74327620D01*
X152243836Y-74343724D01*
X152170306Y-74348447D01*
X152119839Y-74345882D01*
X152047230Y-74332418D01*
X151978331Y-74307414D01*
X151940378Y-74287797D01*
X151876035Y-74242527D01*
X151823725Y-74190544D01*
X151785493Y-74139482D01*
X151749801Y-74075379D01*
X151720777Y-74002965D01*
X151716251Y-73988962D01*
X151698005Y-73916498D01*
X151687057Y-73839955D01*
X151683473Y-73760799D01*
X151989322Y-73760799D01*
X151991005Y-73809177D01*
X152001721Y-73884525D01*
X152024493Y-73955338D01*
X152061952Y-74021359D01*
X152116084Y-74074773D01*
X152163795Y-74100154D01*
X152239182Y-74113974D01*
X152299402Y-74106787D01*
X152370861Y-74074844D01*
X152427493Y-74023115D01*
X152449447Y-73992783D01*
X152482190Y-73921170D01*
X152498934Y-73844238D01*
X152503697Y-73765928D01*
X152501828Y-73712873D01*
X152491060Y-73636841D01*
X152467506Y-73564333D01*
X152427127Y-73499947D01*
X152386529Y-73460838D01*
X152317647Y-73423125D01*
X152239182Y-73410554D01*
X152180909Y-73418478D01*
X152112786Y-73451953D01*
X152058600Y-73506383D01*
X152022294Y-73571755D01*
X152009447Y-73607473D01*
X151993958Y-73682179D01*
X151989322Y-73760799D01*
X151683473Y-73760799D01*
X151683407Y-73759333D01*
X151683471Y-73748137D01*
X151687460Y-73672367D01*
X151699619Y-73591355D01*
X151719884Y-73516296D01*
X151748254Y-73447191D01*
X151769567Y-73407293D01*
X151813790Y-73343276D01*
X151865548Y-73289287D01*
X151924841Y-73245324D01*
X151946048Y-73232950D01*
X152019436Y-73200492D01*
X152096973Y-73181558D01*
X152170306Y-73176081D01*
X152224367Y-73179081D01*
X152300050Y-73194829D01*
X152369241Y-73224075D01*
X152401235Y-73242901D01*
X152463839Y-73290319D01*
X152517253Y-73346807D01*
X152517253Y-73345708D01*
X152524025Y-73285374D01*
X152558285Y-73218946D01*
X152592185Y-73191486D01*
X152663798Y-73173883D01*
X152702488Y-73178141D01*
G37*
G36*
X151241572Y-74372993D02*
G01*
X151217026Y-74313642D01*
X151561775Y-73438764D01*
X151587502Y-73367353D01*
X151594747Y-73324092D01*
X151575837Y-73252566D01*
X151574597Y-73250453D01*
X151521460Y-73197504D01*
X151519276Y-73196231D01*
X151448382Y-73176101D01*
X151446003Y-73176081D01*
X151373169Y-73194226D01*
X151346352Y-73218213D01*
X151307941Y-73283014D01*
X151288467Y-73333984D01*
X151061321Y-73996004D01*
X150846631Y-73382344D01*
X150820986Y-73311453D01*
X150797539Y-73257048D01*
X150752758Y-73197150D01*
X150747713Y-73193667D01*
X150675931Y-73176098D01*
X150672975Y-73176081D01*
X150605564Y-73194766D01*
X150556105Y-73245324D01*
X150538519Y-73313468D01*
X150552441Y-73371353D01*
X150574656Y-73443368D01*
X150575522Y-73445725D01*
X150942253Y-74412194D01*
X150971912Y-74487270D01*
X151004290Y-74557622D01*
X151036408Y-74615160D01*
X151083081Y-74673964D01*
X151141675Y-74719585D01*
X151160606Y-74730198D01*
X151232061Y-74756291D01*
X151306029Y-74767980D01*
X151367601Y-74770498D01*
X151447233Y-74767122D01*
X151523260Y-74754424D01*
X151560309Y-74741922D01*
X151615677Y-74690551D01*
X151626621Y-74635310D01*
X151604854Y-74564706D01*
X151593648Y-74552878D01*
X151524239Y-74524971D01*
X151498393Y-74523569D01*
X151451132Y-74530163D01*
X151407902Y-74536025D01*
X151337193Y-74522836D01*
X151291398Y-74475575D01*
X151257067Y-74408806D01*
X151241572Y-74372993D01*
G37*
G36*
X149587071Y-72963956D02*
G01*
X149256244Y-73948011D01*
X148923952Y-72956629D01*
X148899155Y-72884044D01*
X148883285Y-72842323D01*
X148837379Y-72783230D01*
X148835292Y-72781507D01*
X148764799Y-72754996D01*
X148744067Y-72754030D01*
X148672455Y-72771481D01*
X148665665Y-72775279D01*
X148611505Y-72827679D01*
X148608878Y-72832065D01*
X148587996Y-72903506D01*
X148594590Y-72955163D01*
X148610344Y-73008286D01*
X148629029Y-73061043D01*
X148994660Y-74053890D01*
X149019390Y-74123013D01*
X149034227Y-74162700D01*
X149066114Y-74231617D01*
X149080756Y-74255390D01*
X149133948Y-74309862D01*
X149152929Y-74322069D01*
X149224415Y-74345871D01*
X149263205Y-74348447D01*
X149336678Y-74338429D01*
X149373481Y-74322801D01*
X149431389Y-74275128D01*
X149446387Y-74255390D01*
X149481911Y-74190431D01*
X149493648Y-74162334D01*
X149519456Y-74092325D01*
X149532849Y-74053890D01*
X149892619Y-73069103D01*
X149911670Y-73015980D01*
X149928523Y-72958827D01*
X149935484Y-72905704D01*
X149915919Y-72834786D01*
X149890054Y-72801290D01*
X149827535Y-72761829D01*
X149775382Y-72754030D01*
X149699628Y-72768609D01*
X149656314Y-72805687D01*
X149621601Y-72870900D01*
X149593531Y-72944387D01*
X149587071Y-72963956D01*
G37*
G36*
X148017502Y-73177244D02*
G01*
X148093958Y-73183942D01*
X148171869Y-73198593D01*
X148248376Y-73223709D01*
X148301636Y-73249217D01*
X148362755Y-73289824D01*
X148416904Y-73346074D01*
X148426659Y-73360133D01*
X148459497Y-73426931D01*
X148471492Y-73500680D01*
X148469669Y-73523313D01*
X148433390Y-73588974D01*
X148415929Y-73602392D01*
X148343264Y-73623412D01*
X148339686Y-73623392D01*
X148267427Y-73602529D01*
X148254082Y-73585706D01*
X148211373Y-73523761D01*
X148180942Y-73484795D01*
X148121980Y-73438398D01*
X148115317Y-73435026D01*
X148042039Y-73415150D01*
X147965909Y-73410554D01*
X147951391Y-73410739D01*
X147877683Y-73419600D01*
X147810204Y-73457815D01*
X147778893Y-73526401D01*
X147768805Y-73601064D01*
X147778727Y-73603839D01*
X147852138Y-73623465D01*
X147923777Y-73640997D01*
X147958268Y-73648866D01*
X148030137Y-73664410D01*
X148105494Y-73679832D01*
X148164134Y-73691417D01*
X148238484Y-73706577D01*
X148246650Y-73708394D01*
X148322327Y-73732551D01*
X148387128Y-73767585D01*
X148445846Y-73818684D01*
X148485839Y-73874555D01*
X148512723Y-73943946D01*
X148521684Y-74021650D01*
X148520968Y-74043523D01*
X148507194Y-74116923D01*
X148475888Y-74185415D01*
X148460523Y-74208125D01*
X148407509Y-74263623D01*
X148345096Y-74304483D01*
X148295405Y-74325735D01*
X148222659Y-74343252D01*
X148149458Y-74348447D01*
X148076414Y-74344440D01*
X148001355Y-74330775D01*
X147931837Y-74307414D01*
X147871394Y-74278620D01*
X147805982Y-74239674D01*
X147741694Y-74193108D01*
X147704909Y-74248036D01*
X147655965Y-74304849D01*
X147633411Y-74323923D01*
X147563275Y-74348447D01*
X147529386Y-74344690D01*
X147462891Y-74309979D01*
X147445618Y-74292515D01*
X147418561Y-74222418D01*
X147425156Y-74180927D01*
X147444939Y-74109944D01*
X147449588Y-74093875D01*
X147465236Y-74020845D01*
X147470951Y-73946179D01*
X147470082Y-73869956D01*
X147469651Y-73813555D01*
X147768439Y-73813555D01*
X147769727Y-73863491D01*
X147778779Y-73940387D01*
X147805075Y-74014689D01*
X147842400Y-74060912D01*
X147904360Y-74102983D01*
X147975343Y-74128811D01*
X148052738Y-74137421D01*
X148103948Y-74131702D01*
X148171440Y-74096755D01*
X148195010Y-74069499D01*
X148216136Y-73998203D01*
X148214313Y-73975139D01*
X148178034Y-73911374D01*
X148163540Y-73900267D01*
X148095969Y-73868510D01*
X148080414Y-73864638D01*
X148006237Y-73847923D01*
X147933669Y-73832606D01*
X147919156Y-73829523D01*
X147843800Y-73812350D01*
X147768439Y-73790840D01*
X147768439Y-73813555D01*
X147469651Y-73813555D01*
X147469486Y-73791939D01*
X147469400Y-73774159D01*
X147469180Y-73699123D01*
X147469119Y-73623412D01*
X147469519Y-73593999D01*
X147475508Y-73512215D01*
X147488684Y-73440109D01*
X147514548Y-73365125D01*
X147544997Y-73313921D01*
X147601463Y-73258811D01*
X147669154Y-73221510D01*
X147728665Y-73201635D01*
X147807385Y-73186063D01*
X147887819Y-73178255D01*
X147966276Y-73176081D01*
X148017502Y-73177244D01*
G37*
G36*
X147265054Y-74164532D02*
G01*
X147265054Y-72937944D01*
X147256119Y-72863396D01*
X147224388Y-72801290D01*
X147162392Y-72760676D01*
X147114479Y-72754030D01*
X147041987Y-72770562D01*
X147003104Y-72800924D01*
X146968740Y-72867179D01*
X146960606Y-72937944D01*
X146960606Y-74164532D01*
X146970024Y-74239789D01*
X147003470Y-74301919D01*
X147066926Y-74341904D01*
X147114479Y-74348447D01*
X147188410Y-74329699D01*
X147223289Y-74300453D01*
X147257060Y-74233645D01*
X147265054Y-74164532D01*
G37*
G36*
X146194149Y-73176122D02*
G01*
X146272088Y-73181016D01*
X146345589Y-73194068D01*
X146421317Y-73217847D01*
X146484465Y-73247528D01*
X146546407Y-73288442D01*
X146600470Y-73338014D01*
X146642637Y-73389828D01*
X146681170Y-73453847D01*
X146711478Y-73525226D01*
X146713800Y-73532067D01*
X146734473Y-73609582D01*
X146745528Y-73683656D01*
X146749213Y-73761165D01*
X146746815Y-73827013D01*
X146737071Y-73904413D01*
X146719831Y-73976357D01*
X146689250Y-74055487D01*
X146647875Y-74126761D01*
X146595707Y-74190177D01*
X146544634Y-74235773D01*
X146475460Y-74280286D01*
X146397682Y-74313671D01*
X146326295Y-74332991D01*
X146248932Y-74344583D01*
X146165595Y-74348447D01*
X146099997Y-74346012D01*
X146025804Y-74336425D01*
X145952371Y-74317672D01*
X145929594Y-74309635D01*
X145862287Y-74280035D01*
X145797399Y-74239270D01*
X145752111Y-74199787D01*
X145703976Y-74139253D01*
X145691699Y-74116750D01*
X145672469Y-74045830D01*
X145672589Y-74039871D01*
X145703243Y-73971092D01*
X145709096Y-73966378D01*
X145781279Y-73944713D01*
X145850888Y-73965596D01*
X145878793Y-73990793D01*
X145935885Y-74040701D01*
X145946208Y-74049198D01*
X146006593Y-74091992D01*
X146016153Y-74097659D01*
X146084995Y-74126430D01*
X146100279Y-74130165D01*
X146173655Y-74137421D01*
X146234423Y-74130899D01*
X146305546Y-74103349D01*
X146356116Y-74064001D01*
X146401167Y-74001500D01*
X146428370Y-73931250D01*
X146438170Y-73856053D01*
X145899615Y-73856053D01*
X145872063Y-73855515D01*
X145792878Y-73846334D01*
X145721195Y-73821615D01*
X145705911Y-73811740D01*
X145665153Y-73746940D01*
X145655982Y-73671772D01*
X145656034Y-73668475D01*
X145952371Y-73668475D01*
X146437071Y-73668475D01*
X146428989Y-73617552D01*
X146403633Y-73542410D01*
X146359768Y-73478332D01*
X146338751Y-73458806D01*
X146270670Y-73421740D01*
X146195271Y-73410554D01*
X146157395Y-73412911D01*
X146085052Y-73434190D01*
X146026010Y-73477599D01*
X145994116Y-73519655D01*
X145965205Y-73589886D01*
X145952371Y-73668475D01*
X145656034Y-73668475D01*
X145656219Y-73656815D01*
X145664483Y-73582591D01*
X145684555Y-73509297D01*
X145716433Y-73436933D01*
X145732404Y-73408751D01*
X145780646Y-73344158D01*
X145834221Y-73293182D01*
X145897417Y-73248988D01*
X145952429Y-73220580D01*
X146029857Y-73194308D01*
X146105008Y-73180638D01*
X146186112Y-73176081D01*
X146194149Y-73176122D01*
G37*
G36*
X145170550Y-73338747D02*
G01*
X145170916Y-73338747D01*
X145120163Y-73285171D01*
X145057801Y-73239939D01*
X145025103Y-73221877D01*
X144953473Y-73193970D01*
X144881205Y-73179704D01*
X144817375Y-73176081D01*
X144741603Y-73181839D01*
X144665362Y-73201253D01*
X144612577Y-73224808D01*
X144551148Y-73266796D01*
X144499135Y-73325191D01*
X144477389Y-73362194D01*
X144449224Y-73432662D01*
X144440019Y-73477965D01*
X144433445Y-73552953D01*
X144431601Y-73628527D01*
X144431593Y-73634403D01*
X144431593Y-74163799D01*
X144440851Y-74238691D01*
X144473725Y-74301186D01*
X144535807Y-74341801D01*
X144582535Y-74348447D01*
X144654415Y-74331398D01*
X144693177Y-74300087D01*
X144727245Y-74232866D01*
X144735309Y-74163433D01*
X144735309Y-73688991D01*
X144738851Y-73609321D01*
X144752452Y-73531286D01*
X144771579Y-73480896D01*
X144825893Y-73428140D01*
X144903019Y-73410829D01*
X144916293Y-73410554D01*
X144988684Y-73422755D01*
X145046719Y-73453785D01*
X145100315Y-73508817D01*
X145133181Y-73572487D01*
X145146705Y-73647771D01*
X145151728Y-73727391D01*
X145152964Y-73806594D01*
X145152964Y-74163433D01*
X145162463Y-74239216D01*
X145196195Y-74301552D01*
X145259508Y-74341852D01*
X145306837Y-74348447D01*
X145380110Y-74329699D01*
X145415281Y-74300453D01*
X145449645Y-74233760D01*
X145457779Y-74164898D01*
X145457779Y-73348272D01*
X145448254Y-73273626D01*
X145419678Y-73219678D01*
X145353954Y-73180339D01*
X145315264Y-73176081D01*
X145242357Y-73194766D01*
X145191194Y-73247814D01*
X145189967Y-73250087D01*
X145171024Y-73322865D01*
X145170550Y-73338747D01*
G37*
G36*
X144154622Y-73222976D02*
G01*
X144135571Y-73222976D01*
X144135571Y-73059577D01*
X144134279Y-72985509D01*
X144131907Y-72946737D01*
X144111377Y-72876131D01*
X144110292Y-72874197D01*
X144058634Y-72821441D01*
X143986109Y-72800944D01*
X143983530Y-72800924D01*
X143912123Y-72820331D01*
X143878749Y-72845987D01*
X143840536Y-72911031D01*
X143838816Y-72918893D01*
X143831543Y-72992410D01*
X143830756Y-73036130D01*
X143830756Y-73222976D01*
X143739531Y-73222976D01*
X143664897Y-73238561D01*
X143640246Y-73255949D01*
X143606312Y-73321269D01*
X143605075Y-73339846D01*
X143628452Y-73411316D01*
X143654534Y-73431437D01*
X143726006Y-73453156D01*
X143790089Y-73457449D01*
X143830756Y-73457449D01*
X143830756Y-73949110D01*
X143828674Y-74024322D01*
X143826726Y-74045097D01*
X143805110Y-74095655D01*
X143747591Y-74113974D01*
X143682012Y-74105181D01*
X143614601Y-74096388D01*
X143545358Y-74126430D01*
X143514704Y-74194952D01*
X143514583Y-74200436D01*
X143539506Y-74271507D01*
X143593352Y-74311078D01*
X143667690Y-74335273D01*
X143746744Y-74346111D01*
X143813537Y-74348447D01*
X143891840Y-74344046D01*
X143963675Y-74329040D01*
X144020532Y-74303384D01*
X144076641Y-74253388D01*
X144111014Y-74188580D01*
X144113955Y-74178820D01*
X144127950Y-74106300D01*
X144134220Y-74032091D01*
X144135571Y-73970725D01*
X144135571Y-73457449D01*
X144160850Y-73457449D01*
X144233985Y-73443091D01*
X144261966Y-73424110D01*
X144295901Y-73358324D01*
X144297137Y-73339846D01*
X144272710Y-73268833D01*
X144260135Y-73255949D01*
X144190518Y-73225584D01*
X144154622Y-73222976D01*
G37*
G36*
X143134297Y-73348272D02*
G01*
X143134297Y-74164898D01*
X143143877Y-74239629D01*
X143177895Y-74301552D01*
X143241235Y-74341852D01*
X143288170Y-74348447D01*
X143362101Y-74329699D01*
X143396980Y-74300453D01*
X143430752Y-74233760D01*
X143438746Y-74164898D01*
X143438746Y-73356699D01*
X143429569Y-73283181D01*
X143396980Y-73222243D01*
X143334727Y-73182573D01*
X143288170Y-73176081D01*
X143213667Y-73194113D01*
X143177895Y-73222243D01*
X143141492Y-73288766D01*
X143134297Y-73348272D01*
G37*
G36*
X143284873Y-73058845D02*
G01*
X143359841Y-73042909D01*
X143393317Y-73021842D01*
X143433378Y-72960338D01*
X143438746Y-72917794D01*
X143418866Y-72846636D01*
X143392584Y-72817044D01*
X143325204Y-72782152D01*
X143284873Y-72777477D01*
X143210334Y-72794447D01*
X143180459Y-72813381D01*
X143139752Y-72874381D01*
X143134297Y-72917794D01*
X143151900Y-72989378D01*
X143179360Y-73021475D01*
X143244966Y-73054429D01*
X143284873Y-73058845D01*
G37*
G36*
X142591345Y-73338747D02*
G01*
X142591712Y-73338747D01*
X142540959Y-73285171D01*
X142478597Y-73239939D01*
X142445899Y-73221877D01*
X142374269Y-73193970D01*
X142302000Y-73179704D01*
X142238170Y-73176081D01*
X142162399Y-73181839D01*
X142086158Y-73201253D01*
X142033373Y-73224808D01*
X141971944Y-73266796D01*
X141919930Y-73325191D01*
X141898184Y-73362194D01*
X141870020Y-73432662D01*
X141860815Y-73477965D01*
X141854240Y-73552953D01*
X141852397Y-73628527D01*
X141852389Y-73634403D01*
X141852389Y-74163799D01*
X141861646Y-74238691D01*
X141894520Y-74301186D01*
X141956602Y-74341801D01*
X142003331Y-74348447D01*
X142075210Y-74331398D01*
X142113973Y-74300087D01*
X142148040Y-74232866D01*
X142156105Y-74163433D01*
X142156105Y-73688991D01*
X142159647Y-73609321D01*
X142173248Y-73531286D01*
X142192375Y-73480896D01*
X142246688Y-73428140D01*
X142323815Y-73410829D01*
X142337089Y-73410554D01*
X142409479Y-73422755D01*
X142467514Y-73453785D01*
X142521111Y-73508817D01*
X142553976Y-73572487D01*
X142567500Y-73647771D01*
X142572523Y-73727391D01*
X142573760Y-73806594D01*
X142573760Y-74163433D01*
X142583259Y-74239216D01*
X142616991Y-74301552D01*
X142680303Y-74341852D01*
X142727633Y-74348447D01*
X142800906Y-74329699D01*
X142836077Y-74300453D01*
X142870440Y-74233760D01*
X142878575Y-74164898D01*
X142878575Y-73348272D01*
X142869049Y-73273626D01*
X142840473Y-73219678D01*
X142774749Y-73180339D01*
X142736059Y-73176081D01*
X142663153Y-73194766D01*
X142611989Y-73247814D01*
X142610763Y-73250087D01*
X142591819Y-73322865D01*
X142591345Y-73338747D01*
G37*
G36*
X141100221Y-73176122D02*
G01*
X141178159Y-73181016D01*
X141251661Y-73194068D01*
X141327389Y-73217847D01*
X141390536Y-73247528D01*
X141452478Y-73288442D01*
X141506541Y-73338014D01*
X141548708Y-73389828D01*
X141587241Y-73453847D01*
X141617549Y-73525226D01*
X141619871Y-73532067D01*
X141640544Y-73609582D01*
X141651600Y-73683656D01*
X141655285Y-73761165D01*
X141652886Y-73827013D01*
X141643142Y-73904413D01*
X141625902Y-73976357D01*
X141595321Y-74055487D01*
X141553946Y-74126761D01*
X141501778Y-74190177D01*
X141450705Y-74235773D01*
X141381531Y-74280286D01*
X141303753Y-74313671D01*
X141232366Y-74332991D01*
X141155003Y-74344583D01*
X141071666Y-74348447D01*
X141006069Y-74346012D01*
X140931875Y-74336425D01*
X140858442Y-74317672D01*
X140835665Y-74309635D01*
X140768359Y-74280035D01*
X140703470Y-74239270D01*
X140658182Y-74199787D01*
X140610047Y-74139253D01*
X140597771Y-74116750D01*
X140578540Y-74045830D01*
X140578660Y-74039871D01*
X140609315Y-73971092D01*
X140615168Y-73966378D01*
X140687350Y-73944713D01*
X140756959Y-73965596D01*
X140784864Y-73990793D01*
X140841956Y-74040701D01*
X140852280Y-74049198D01*
X140912664Y-74091992D01*
X140922224Y-74097659D01*
X140991066Y-74126430D01*
X141006350Y-74130165D01*
X141079726Y-74137421D01*
X141140494Y-74130899D01*
X141211617Y-74103349D01*
X141262188Y-74064001D01*
X141307239Y-74001500D01*
X141334441Y-73931250D01*
X141344241Y-73856053D01*
X140805686Y-73856053D01*
X140778134Y-73855515D01*
X140698949Y-73846334D01*
X140627266Y-73821615D01*
X140611982Y-73811740D01*
X140571224Y-73746940D01*
X140562054Y-73671772D01*
X140562106Y-73668475D01*
X140858442Y-73668475D01*
X141343142Y-73668475D01*
X141335060Y-73617552D01*
X141309704Y-73542410D01*
X141265839Y-73478332D01*
X141244822Y-73458806D01*
X141176741Y-73421740D01*
X141101342Y-73410554D01*
X141063466Y-73412911D01*
X140991123Y-73434190D01*
X140932082Y-73477599D01*
X140900187Y-73519655D01*
X140871276Y-73589886D01*
X140858442Y-73668475D01*
X140562106Y-73668475D01*
X140562290Y-73656815D01*
X140570554Y-73582591D01*
X140590626Y-73509297D01*
X140622504Y-73436933D01*
X140638475Y-73408751D01*
X140686718Y-73344158D01*
X140740292Y-73293182D01*
X140803488Y-73248988D01*
X140858500Y-73220580D01*
X140935928Y-73194308D01*
X141011079Y-73180638D01*
X141092183Y-73176081D01*
X141100221Y-73176122D01*
G37*
G36*
X139426324Y-73965596D02*
G01*
X139433251Y-74044854D01*
X139454031Y-74115887D01*
X139484943Y-74173325D01*
X139536634Y-74232246D01*
X139597596Y-74275848D01*
X139657134Y-74304117D01*
X139732732Y-74327494D01*
X139808663Y-74341131D01*
X139882434Y-74347365D01*
X139931541Y-74348447D01*
X140005958Y-74345470D01*
X140083219Y-74335005D01*
X140161043Y-74314540D01*
X140196788Y-74300819D01*
X140266101Y-74264923D01*
X140326311Y-74219148D01*
X140360920Y-74180286D01*
X140397485Y-74116212D01*
X140414200Y-74042298D01*
X140414409Y-74033007D01*
X140392271Y-73961461D01*
X140378139Y-73944713D01*
X140312674Y-73910367D01*
X140286181Y-73908077D01*
X140214783Y-73929007D01*
X140211443Y-73931891D01*
X140165569Y-73990666D01*
X140162717Y-73995638D01*
X140117013Y-74058286D01*
X140063432Y-74102616D01*
X139990013Y-74129773D01*
X139911073Y-74137387D01*
X139904796Y-74137421D01*
X139831798Y-74128811D01*
X139774004Y-74102983D01*
X139726214Y-74044701D01*
X139723812Y-74026779D01*
X139746532Y-73954411D01*
X139776569Y-73928593D01*
X139847643Y-73897452D01*
X139918184Y-73876468D01*
X139956087Y-73867044D01*
X140034111Y-73846117D01*
X140110947Y-73822118D01*
X140183483Y-73794809D01*
X140195323Y-73789741D01*
X140264945Y-73752225D01*
X140322596Y-73705761D01*
X140345166Y-73681297D01*
X140383985Y-73615891D01*
X140400566Y-73544232D01*
X140401952Y-73513869D01*
X140391925Y-73438505D01*
X140361841Y-73366928D01*
X140349562Y-73347173D01*
X140298954Y-73288793D01*
X140237963Y-73244348D01*
X140196056Y-73222609D01*
X140121733Y-73196119D01*
X140045827Y-73181579D01*
X139970720Y-73176263D01*
X139953156Y-73176081D01*
X139879687Y-73178895D01*
X139805464Y-73188383D01*
X139753854Y-73199895D01*
X139681746Y-73223637D01*
X139612732Y-73258671D01*
X139605110Y-73263642D01*
X139546442Y-73311813D01*
X139513153Y-73353768D01*
X139484061Y-73421758D01*
X139480913Y-73452320D01*
X139501109Y-73522937D01*
X139516816Y-73541713D01*
X139583380Y-73574102D01*
X139617567Y-73576884D01*
X139689053Y-73556407D01*
X139697434Y-73550139D01*
X139750465Y-73496284D01*
X139769974Y-73472470D01*
X139823972Y-73421406D01*
X139841415Y-73410554D01*
X139911877Y-73389397D01*
X139953523Y-73387107D01*
X140027080Y-73396496D01*
X140072591Y-73416782D01*
X140117626Y-73474849D01*
X140118753Y-73487491D01*
X140085047Y-73551238D01*
X140018484Y-73585379D01*
X139989426Y-73594836D01*
X139915787Y-73614894D01*
X139844689Y-73632703D01*
X139817968Y-73639166D01*
X139739922Y-73660375D01*
X139664733Y-73686680D01*
X139600714Y-73716102D01*
X139538305Y-73755320D01*
X139482825Y-73807785D01*
X139471021Y-73823080D01*
X139437499Y-73889850D01*
X139426324Y-73965596D01*
G37*
G36*
X138479104Y-72800971D02*
G01*
X138557643Y-72811389D01*
X138624353Y-72848551D01*
X138632865Y-72857906D01*
X138664120Y-72924435D01*
X138671980Y-72999127D01*
X138671980Y-74099319D01*
X138670379Y-74147211D01*
X138658425Y-74222051D01*
X138650826Y-74242335D01*
X138599074Y-74297889D01*
X138543020Y-74318222D01*
X138466450Y-74325000D01*
X138067846Y-74325000D01*
X138035612Y-74324678D01*
X137956575Y-74320826D01*
X137879168Y-74311810D01*
X137868677Y-74310087D01*
X137792636Y-74292420D01*
X137721265Y-74266381D01*
X137712105Y-74262222D01*
X137646229Y-74225740D01*
X137585344Y-74179919D01*
X137547586Y-74142459D01*
X137497731Y-74081802D01*
X137456017Y-74015788D01*
X137427188Y-73956204D01*
X137401343Y-73885785D01*
X137381645Y-73810258D01*
X137377324Y-73788691D01*
X137365990Y-73713873D01*
X137359378Y-73634546D01*
X137357465Y-73559298D01*
X137357485Y-73557100D01*
X137691223Y-73557100D01*
X137693559Y-73632680D01*
X137703047Y-73718960D01*
X137719834Y-73796134D01*
X137749613Y-73876724D01*
X137789901Y-73944202D01*
X137840700Y-73998569D01*
X137851185Y-74007195D01*
X137918003Y-74043265D01*
X137931811Y-74047902D01*
X138004831Y-74063049D01*
X138048078Y-74065804D01*
X138122434Y-74067079D01*
X138342619Y-74067079D01*
X138342619Y-73058845D01*
X138152476Y-73058845D01*
X138143862Y-73058874D01*
X138070072Y-73061743D01*
X137995970Y-73070437D01*
X137918003Y-73088520D01*
X137855648Y-73118273D01*
X137800566Y-73166727D01*
X137756802Y-73227006D01*
X137748861Y-73241003D01*
X137719466Y-73314938D01*
X137702046Y-73395693D01*
X137693529Y-73477961D01*
X137691223Y-73557100D01*
X137357485Y-73557100D01*
X137357700Y-73533402D01*
X137361215Y-73458205D01*
X137372463Y-73363751D01*
X137391211Y-73275938D01*
X137417458Y-73194766D01*
X137451203Y-73120233D01*
X137492448Y-73052342D01*
X137541191Y-72991090D01*
X137597434Y-72936479D01*
X137657405Y-72892186D01*
X137728083Y-72854869D01*
X137803697Y-72829501D01*
X137840147Y-72821268D01*
X137919488Y-72808989D01*
X137998236Y-72802710D01*
X138074074Y-72800924D01*
X138472678Y-72800924D01*
X138479104Y-72800971D01*
G37*
G36*
X136696846Y-73177244D02*
G01*
X136773302Y-73183942D01*
X136851213Y-73198593D01*
X136927720Y-73223709D01*
X136980980Y-73249217D01*
X137042099Y-73289824D01*
X137096248Y-73346074D01*
X137106003Y-73360133D01*
X137138841Y-73426931D01*
X137150836Y-73500680D01*
X137149013Y-73523313D01*
X137112734Y-73588974D01*
X137095273Y-73602392D01*
X137022608Y-73623412D01*
X137019030Y-73623392D01*
X136946771Y-73602529D01*
X136933426Y-73585706D01*
X136890717Y-73523761D01*
X136860286Y-73484795D01*
X136801324Y-73438398D01*
X136794661Y-73435026D01*
X136721383Y-73415150D01*
X136645253Y-73410554D01*
X136630735Y-73410739D01*
X136557027Y-73419600D01*
X136489548Y-73457815D01*
X136458237Y-73526401D01*
X136448149Y-73601064D01*
X136458071Y-73603839D01*
X136531482Y-73623465D01*
X136603121Y-73640997D01*
X136637613Y-73648866D01*
X136709481Y-73664410D01*
X136784838Y-73679832D01*
X136843478Y-73691417D01*
X136917828Y-73706577D01*
X136925994Y-73708394D01*
X137001671Y-73732551D01*
X137066472Y-73767585D01*
X137125190Y-73818684D01*
X137165183Y-73874555D01*
X137192067Y-73943946D01*
X137201028Y-74021650D01*
X137200312Y-74043523D01*
X137186538Y-74116923D01*
X137155232Y-74185415D01*
X137139868Y-74208125D01*
X137086853Y-74263623D01*
X137024440Y-74304483D01*
X136974749Y-74325735D01*
X136902003Y-74343252D01*
X136828802Y-74348447D01*
X136755758Y-74344440D01*
X136680699Y-74330775D01*
X136611181Y-74307414D01*
X136550738Y-74278620D01*
X136485326Y-74239674D01*
X136421038Y-74193108D01*
X136384253Y-74248036D01*
X136335309Y-74304849D01*
X136312755Y-74323923D01*
X136242619Y-74348447D01*
X136208730Y-74344690D01*
X136142235Y-74309979D01*
X136124962Y-74292515D01*
X136097905Y-74222418D01*
X136104500Y-74180927D01*
X136124283Y-74109944D01*
X136128932Y-74093875D01*
X136144580Y-74020845D01*
X136150295Y-73946179D01*
X136149426Y-73869956D01*
X136148995Y-73813555D01*
X136447783Y-73813555D01*
X136449071Y-73863491D01*
X136458123Y-73940387D01*
X136484419Y-74014689D01*
X136521744Y-74060912D01*
X136583704Y-74102983D01*
X136654687Y-74128811D01*
X136732082Y-74137421D01*
X136783292Y-74131702D01*
X136850784Y-74096755D01*
X136874354Y-74069499D01*
X136895480Y-73998203D01*
X136893657Y-73975139D01*
X136857378Y-73911374D01*
X136842884Y-73900267D01*
X136775313Y-73868510D01*
X136759758Y-73864638D01*
X136685581Y-73847923D01*
X136613013Y-73832606D01*
X136598500Y-73829523D01*
X136523144Y-73812350D01*
X136447783Y-73790840D01*
X136447783Y-73813555D01*
X136148995Y-73813555D01*
X136148830Y-73791939D01*
X136148744Y-73774159D01*
X136148524Y-73699123D01*
X136148463Y-73623412D01*
X136148863Y-73593999D01*
X136154852Y-73512215D01*
X136168028Y-73440109D01*
X136193892Y-73365125D01*
X136224341Y-73313921D01*
X136280807Y-73258811D01*
X136348498Y-73221510D01*
X136408009Y-73201635D01*
X136486729Y-73186063D01*
X136567163Y-73178255D01*
X136645620Y-73176081D01*
X136696846Y-73177244D01*
G37*
G36*
X135646178Y-74372993D02*
G01*
X135621631Y-74313642D01*
X135966380Y-73438764D01*
X135992108Y-73367353D01*
X135999353Y-73324092D01*
X135980443Y-73252566D01*
X135979203Y-73250453D01*
X135926065Y-73197504D01*
X135923882Y-73196231D01*
X135852988Y-73176101D01*
X135850609Y-73176081D01*
X135777775Y-73194226D01*
X135750958Y-73218213D01*
X135712547Y-73283014D01*
X135693072Y-73333984D01*
X135465927Y-73996004D01*
X135251237Y-73382344D01*
X135225592Y-73311453D01*
X135202144Y-73257048D01*
X135157363Y-73197150D01*
X135152319Y-73193667D01*
X135080537Y-73176098D01*
X135077581Y-73176081D01*
X135010169Y-73194766D01*
X134960710Y-73245324D01*
X134943125Y-73313468D01*
X134957047Y-73371353D01*
X134979262Y-73443368D01*
X134980128Y-73445725D01*
X135346858Y-74412194D01*
X135376518Y-74487270D01*
X135408896Y-74557622D01*
X135441014Y-74615160D01*
X135487687Y-74673964D01*
X135546281Y-74719585D01*
X135565211Y-74730198D01*
X135636666Y-74756291D01*
X135710635Y-74767980D01*
X135772207Y-74770498D01*
X135851839Y-74767122D01*
X135927866Y-74754424D01*
X135964915Y-74741922D01*
X136020283Y-74690551D01*
X136031227Y-74635310D01*
X136009460Y-74564706D01*
X135998254Y-74552878D01*
X135928845Y-74524971D01*
X135902999Y-74523569D01*
X135855738Y-74530163D01*
X135812507Y-74536025D01*
X135741799Y-74522836D01*
X135696003Y-74475575D01*
X135661672Y-74408806D01*
X135646178Y-74372993D01*
G37*
G36*
X151769503Y-75578845D02*
G01*
X152360815Y-75578845D01*
X152360815Y-75930554D01*
X151868422Y-75930554D01*
X151792715Y-75943083D01*
X151755948Y-75966092D01*
X151720227Y-76032037D01*
X151717846Y-76059881D01*
X151737908Y-76132180D01*
X151756681Y-76153670D01*
X151826025Y-76185076D01*
X151868422Y-76188475D01*
X152360815Y-76188475D01*
X152360815Y-76671343D01*
X152369651Y-76748359D01*
X152404137Y-76816237D01*
X152406977Y-76819354D01*
X152470659Y-76860345D01*
X152524946Y-76868447D01*
X152598800Y-76852798D01*
X152644381Y-76818988D01*
X152680114Y-76752789D01*
X152690132Y-76677776D01*
X152690177Y-76671709D01*
X152690177Y-75518761D01*
X152682019Y-75442883D01*
X152669294Y-75406287D01*
X152619285Y-75349860D01*
X152603348Y-75341441D01*
X152530824Y-75322928D01*
X152490875Y-75320924D01*
X151769503Y-75320924D01*
X151694593Y-75332168D01*
X151653000Y-75356461D01*
X151615905Y-75422132D01*
X151613432Y-75449518D01*
X151633873Y-75521521D01*
X151653000Y-75543307D01*
X151720860Y-75574645D01*
X151769503Y-75578845D01*
G37*
G36*
X151172696Y-76444930D02*
G01*
X151172696Y-76683066D01*
X151182275Y-76759112D01*
X151216293Y-76821552D01*
X151279634Y-76861852D01*
X151326569Y-76868447D01*
X151399842Y-76850129D01*
X151435013Y-76821552D01*
X151469377Y-76755053D01*
X151477511Y-76684898D01*
X151477511Y-75898314D01*
X151470393Y-75819514D01*
X151440325Y-75746639D01*
X151379317Y-75703191D01*
X151328767Y-75696081D01*
X151256781Y-75710919D01*
X151219224Y-75742976D01*
X151187090Y-75810617D01*
X151183687Y-75837498D01*
X151137877Y-75778609D01*
X151096859Y-75741144D01*
X151027248Y-75705983D01*
X150954238Y-75696125D01*
X150948481Y-75696081D01*
X150874728Y-75703579D01*
X150802306Y-75726071D01*
X150769329Y-75741510D01*
X150709222Y-75787502D01*
X150681487Y-75860130D01*
X150681401Y-75864975D01*
X150703452Y-75937034D01*
X150720602Y-75956200D01*
X150785655Y-75990385D01*
X150805233Y-75992103D01*
X150878134Y-75974225D01*
X150881803Y-75973053D01*
X150955964Y-75955862D01*
X150984751Y-75954002D01*
X151056309Y-75969900D01*
X151078540Y-75984776D01*
X151122729Y-76045143D01*
X151135693Y-76077833D01*
X151154080Y-76151349D01*
X151164636Y-76228408D01*
X151169854Y-76306738D01*
X151172192Y-76383312D01*
X151172696Y-76444930D01*
G37*
G36*
X150140558Y-75696122D02*
G01*
X150217938Y-75701016D01*
X150291097Y-75714068D01*
X150366695Y-75737847D01*
X150430057Y-75767456D01*
X150492731Y-75808126D01*
X150548045Y-75857281D01*
X150591357Y-75908673D01*
X150631150Y-75972311D01*
X150662717Y-76043394D01*
X150667553Y-76057036D01*
X150687051Y-76127819D01*
X150698751Y-76202895D01*
X150702651Y-76282264D01*
X150702612Y-76290348D01*
X150698018Y-76368744D01*
X150685768Y-76442704D01*
X150663450Y-76518935D01*
X150635106Y-76583078D01*
X150595582Y-76647353D01*
X150547312Y-76705048D01*
X150496772Y-76750737D01*
X150434980Y-76792812D01*
X150366695Y-76826315D01*
X150360144Y-76828907D01*
X150284829Y-76851989D01*
X150211177Y-76864332D01*
X150132588Y-76868447D01*
X150124416Y-76868406D01*
X150045490Y-76863512D01*
X149971645Y-76850460D01*
X149896283Y-76826681D01*
X149833428Y-76797000D01*
X149770900Y-76756086D01*
X149715299Y-76706514D01*
X149671214Y-76654579D01*
X149630902Y-76590673D01*
X149599161Y-76519668D01*
X149594326Y-76505991D01*
X149574827Y-76435330D01*
X149563127Y-76360876D01*
X149559228Y-76282630D01*
X149865142Y-76282630D01*
X149866922Y-76332810D01*
X149877174Y-76405620D01*
X149899602Y-76476527D01*
X149938048Y-76541650D01*
X149988216Y-76590336D01*
X150054558Y-76623064D01*
X150132588Y-76633974D01*
X150203744Y-76624797D01*
X150272905Y-76592208D01*
X150276589Y-76589561D01*
X150328418Y-76537182D01*
X150364863Y-76470942D01*
X150377425Y-76434632D01*
X150392569Y-76359945D01*
X150397103Y-76282630D01*
X150395525Y-76236233D01*
X150385479Y-76163057D01*
X150364130Y-76092854D01*
X150362043Y-76087855D01*
X150324471Y-76022237D01*
X150271440Y-75971587D01*
X150206685Y-75940812D01*
X150132588Y-75930554D01*
X150061168Y-75939534D01*
X149993764Y-75970157D01*
X149938048Y-76022512D01*
X149917045Y-76053109D01*
X149885718Y-76125466D01*
X149869699Y-76203312D01*
X149865142Y-76282630D01*
X149559228Y-76282630D01*
X149559266Y-76274546D01*
X149563903Y-76196107D01*
X149576268Y-76122033D01*
X149598795Y-76045593D01*
X149626909Y-75981135D01*
X149666182Y-75916844D01*
X149714200Y-75859480D01*
X149764568Y-75813827D01*
X149826832Y-75771874D01*
X149896283Y-75738579D01*
X149902946Y-75735965D01*
X149979316Y-75712682D01*
X150053626Y-75700231D01*
X150132588Y-75696081D01*
X150140558Y-75696122D01*
G37*
G36*
X148448778Y-76297285D02*
G01*
X148448778Y-76676838D01*
X148457122Y-76750779D01*
X148489693Y-76816997D01*
X148492375Y-76820087D01*
X148553528Y-76860466D01*
X148606681Y-76868447D01*
X148679607Y-76851398D01*
X148718788Y-76820087D01*
X148753448Y-76750779D01*
X148761653Y-76676838D01*
X148761653Y-76222180D01*
X148762632Y-76148902D01*
X148766982Y-76072835D01*
X148768614Y-76057683D01*
X148790165Y-75986585D01*
X148804884Y-75965359D01*
X148871126Y-75932220D01*
X148897207Y-75930554D01*
X148970065Y-75939499D01*
X149038892Y-75977870D01*
X149069399Y-76022145D01*
X149093177Y-76095244D01*
X149105291Y-76170122D01*
X149110512Y-76248066D01*
X149111164Y-76291057D01*
X149111164Y-76676838D01*
X149119369Y-76750098D01*
X149151392Y-76816242D01*
X149154029Y-76819354D01*
X149218171Y-76861543D01*
X149267235Y-76868447D01*
X149340243Y-76851269D01*
X149380076Y-76819720D01*
X149415624Y-76750993D01*
X149424039Y-76678304D01*
X149424039Y-75868272D01*
X149414056Y-75793809D01*
X149384106Y-75738946D01*
X149320964Y-75699208D01*
X149279325Y-75693883D01*
X149206258Y-75711554D01*
X149174912Y-75734916D01*
X149137758Y-75801386D01*
X149132780Y-75846657D01*
X149134978Y-75846657D01*
X149080000Y-75791970D01*
X149018903Y-75750608D01*
X148992829Y-75737114D01*
X148920029Y-75710547D01*
X148847249Y-75698045D01*
X148802319Y-75696081D01*
X148724713Y-75702057D01*
X148650290Y-75722020D01*
X148614374Y-75738579D01*
X148552074Y-75781305D01*
X148500731Y-75839378D01*
X148492375Y-75852519D01*
X148438501Y-75798245D01*
X148377493Y-75754492D01*
X148346928Y-75737847D01*
X148276036Y-75710805D01*
X148199097Y-75697549D01*
X148161548Y-75696081D01*
X148083959Y-75701449D01*
X148007907Y-75719550D01*
X147956750Y-75741510D01*
X147893695Y-75785073D01*
X147845031Y-75841937D01*
X147827424Y-75872669D01*
X147804652Y-75945037D01*
X147793704Y-76024392D01*
X147790201Y-76100344D01*
X147790055Y-76121064D01*
X147790055Y-76677205D01*
X147798399Y-76750895D01*
X147830970Y-76816997D01*
X147833652Y-76820087D01*
X147894805Y-76860466D01*
X147947958Y-76868447D01*
X148021272Y-76851140D01*
X148061164Y-76819354D01*
X148096713Y-76750098D01*
X148105128Y-76676838D01*
X148105128Y-76196901D01*
X148106738Y-76119750D01*
X148112455Y-76052554D01*
X148136841Y-75983242D01*
X148150923Y-75964993D01*
X148219706Y-75932202D01*
X148246178Y-75930554D01*
X148318502Y-75947020D01*
X148345463Y-75962428D01*
X148398499Y-76013090D01*
X148419102Y-76047058D01*
X148438316Y-76122113D01*
X148445880Y-76195397D01*
X148448662Y-76275184D01*
X148448778Y-76297285D01*
G37*
G36*
X146818219Y-75320970D02*
G01*
X146895877Y-75331228D01*
X146961705Y-75367819D01*
X146970151Y-75377117D01*
X147001166Y-75443784D01*
X147008966Y-75519127D01*
X147008966Y-76646796D01*
X147008921Y-76653132D01*
X146998904Y-76730710D01*
X146963170Y-76797006D01*
X146953997Y-76805583D01*
X146887559Y-76837079D01*
X146811862Y-76845000D01*
X146349877Y-76845000D01*
X146291625Y-76844244D01*
X146217510Y-76840737D01*
X146138851Y-76832909D01*
X146121930Y-76830419D01*
X146047818Y-76814711D01*
X145977284Y-76790411D01*
X145963271Y-76783924D01*
X145898699Y-76745091D01*
X145843287Y-76695596D01*
X145797033Y-76635439D01*
X145788959Y-76622240D01*
X145756401Y-76553196D01*
X145736866Y-76479072D01*
X145730355Y-76399867D01*
X145730625Y-76382334D01*
X145731731Y-76372756D01*
X146064113Y-76372756D01*
X146078383Y-76456267D01*
X146121194Y-76519266D01*
X146192545Y-76561754D01*
X146276420Y-76581847D01*
X146362333Y-76587079D01*
X146679238Y-76587079D01*
X146679238Y-76165027D01*
X146372591Y-76165027D01*
X146362915Y-76165076D01*
X146282846Y-76169857D01*
X146208701Y-76184347D01*
X146140316Y-76214487D01*
X146114419Y-76235009D01*
X146074829Y-76299323D01*
X146064113Y-76372756D01*
X145731731Y-76372756D01*
X145740092Y-76300382D01*
X145763083Y-76227946D01*
X145808523Y-76153586D01*
X145861267Y-76102087D01*
X145927535Y-76060106D01*
X146007326Y-76027641D01*
X145994659Y-76021692D01*
X145927099Y-75980425D01*
X145874016Y-75929600D01*
X145830384Y-75858226D01*
X145808668Y-75786695D01*
X145805321Y-75749204D01*
X146124563Y-75749204D01*
X146125426Y-75767004D01*
X146149109Y-75836399D01*
X146176209Y-75872669D01*
X146239235Y-75911137D01*
X146258973Y-75916731D01*
X146333860Y-75927824D01*
X146410693Y-75930554D01*
X146679238Y-75930554D01*
X146679238Y-75578845D01*
X146442567Y-75578845D01*
X146432372Y-75578878D01*
X146356992Y-75581540D01*
X146278224Y-75590856D01*
X146201499Y-75612916D01*
X146192183Y-75617442D01*
X146139289Y-75672808D01*
X146124563Y-75749204D01*
X145805321Y-75749204D01*
X145801429Y-75705607D01*
X145805118Y-75652817D01*
X145823778Y-75579577D01*
X145845261Y-75532573D01*
X145888624Y-75470401D01*
X145925270Y-75433117D01*
X145986443Y-75389068D01*
X145990489Y-75386597D01*
X146059606Y-75353980D01*
X146131890Y-75335212D01*
X146168663Y-75329645D01*
X146244118Y-75322933D01*
X146322033Y-75320924D01*
X146811862Y-75320924D01*
X146818219Y-75320970D01*
G37*
G36*
X145021716Y-75696122D02*
G01*
X145099097Y-75701016D01*
X145172255Y-75714068D01*
X145247853Y-75737847D01*
X145311215Y-75767456D01*
X145373889Y-75808126D01*
X145429203Y-75857281D01*
X145472516Y-75908673D01*
X145512308Y-75972311D01*
X145543875Y-76043394D01*
X145548711Y-76057036D01*
X145568210Y-76127819D01*
X145579909Y-76202895D01*
X145583809Y-76282264D01*
X145583771Y-76290348D01*
X145579177Y-76368744D01*
X145566927Y-76442704D01*
X145544608Y-76518935D01*
X145516265Y-76583078D01*
X145476740Y-76647353D01*
X145428471Y-76705048D01*
X145377931Y-76750737D01*
X145316139Y-76792812D01*
X145247853Y-76826315D01*
X145241302Y-76828907D01*
X145165988Y-76851989D01*
X145092336Y-76864332D01*
X145013746Y-76868447D01*
X145005574Y-76868406D01*
X144926648Y-76863512D01*
X144852803Y-76850460D01*
X144777441Y-76826681D01*
X144714587Y-76797000D01*
X144652059Y-76756086D01*
X144596457Y-76706514D01*
X144552372Y-76654579D01*
X144512060Y-76590673D01*
X144480320Y-76519668D01*
X144475484Y-76505991D01*
X144455985Y-76435330D01*
X144444286Y-76360876D01*
X144440386Y-76282630D01*
X144746300Y-76282630D01*
X144748080Y-76332810D01*
X144758333Y-76405620D01*
X144780760Y-76476527D01*
X144819207Y-76541650D01*
X144869374Y-76590336D01*
X144935716Y-76623064D01*
X145013746Y-76633974D01*
X145084903Y-76624797D01*
X145154064Y-76592208D01*
X145157747Y-76589561D01*
X145209576Y-76537182D01*
X145246021Y-76470942D01*
X145258583Y-76434632D01*
X145273727Y-76359945D01*
X145278261Y-76282630D01*
X145276683Y-76236233D01*
X145266637Y-76163057D01*
X145245288Y-76092854D01*
X145243202Y-76087855D01*
X145205629Y-76022237D01*
X145152598Y-75971587D01*
X145087843Y-75940812D01*
X145013746Y-75930554D01*
X144942327Y-75939534D01*
X144874922Y-75970157D01*
X144819207Y-76022512D01*
X144798203Y-76053109D01*
X144766876Y-76125466D01*
X144750857Y-76203312D01*
X144746300Y-76282630D01*
X144440386Y-76282630D01*
X144440425Y-76274546D01*
X144445062Y-76196107D01*
X144457426Y-76122033D01*
X144479953Y-76045593D01*
X144508068Y-75981135D01*
X144547341Y-75916844D01*
X144595358Y-75859480D01*
X144645726Y-75813827D01*
X144707991Y-75771874D01*
X144777441Y-75738579D01*
X144784105Y-75735965D01*
X144860474Y-75712682D01*
X144934785Y-75700231D01*
X145013746Y-75696081D01*
X145021716Y-75696122D01*
G37*
G36*
X144155860Y-75279701D02*
G01*
X144218003Y-75322023D01*
X144247161Y-75384621D01*
X144255372Y-75459776D01*
X144255372Y-76695157D01*
X144249023Y-76757091D01*
X144216904Y-76824117D01*
X144184069Y-76851130D01*
X144112856Y-76868447D01*
X144071671Y-76863382D01*
X144007710Y-76825582D01*
X143977995Y-76776601D01*
X143966534Y-76702106D01*
X143962546Y-76706780D01*
X143910990Y-76760369D01*
X143901641Y-76768691D01*
X143840648Y-76812393D01*
X143810151Y-76828604D01*
X143740630Y-76853060D01*
X143691496Y-76863022D01*
X143615334Y-76868447D01*
X143562074Y-76865699D01*
X143486477Y-76851273D01*
X143416032Y-76824483D01*
X143372320Y-76800051D01*
X143313192Y-76754903D01*
X143261792Y-76699553D01*
X143228546Y-76651778D01*
X143191700Y-76581135D01*
X143165438Y-76509410D01*
X143163410Y-76502566D01*
X143145346Y-76424539D01*
X143135686Y-76349249D01*
X143133030Y-76283729D01*
X143438380Y-76283729D01*
X143440178Y-76335105D01*
X143450533Y-76409081D01*
X143473186Y-76480208D01*
X143512019Y-76544214D01*
X143545534Y-76579189D01*
X143609023Y-76619160D01*
X143686408Y-76633974D01*
X143749791Y-76627018D01*
X143823121Y-76596106D01*
X143879116Y-76546046D01*
X143900330Y-76516664D01*
X143931972Y-76446468D01*
X143948153Y-76370260D01*
X143952755Y-76292156D01*
X143951090Y-76244010D01*
X143940485Y-76168654D01*
X143917951Y-76097250D01*
X143915729Y-76092182D01*
X143876643Y-76025351D01*
X143823062Y-75973053D01*
X143763111Y-75942548D01*
X143686408Y-75930554D01*
X143624909Y-75938689D01*
X143556349Y-75973053D01*
X143503926Y-76028261D01*
X143469521Y-76094319D01*
X143457387Y-76130305D01*
X143442759Y-76205230D01*
X143438380Y-76283729D01*
X143133030Y-76283729D01*
X143132466Y-76269808D01*
X143135323Y-76194795D01*
X143145587Y-76114561D01*
X143163316Y-76040189D01*
X143192183Y-75963527D01*
X143203746Y-75939682D01*
X143243652Y-75874638D01*
X143297168Y-75813787D01*
X143360344Y-75764958D01*
X143387999Y-75748815D01*
X143461894Y-75717874D01*
X143534212Y-75701529D01*
X143612037Y-75696081D01*
X143678945Y-75699675D01*
X143752142Y-75713827D01*
X143821231Y-75741510D01*
X143847087Y-75756154D01*
X143908789Y-75798414D01*
X143966311Y-75850687D01*
X143966311Y-75447686D01*
X143972599Y-75386817D01*
X144004413Y-75319825D01*
X144040691Y-75290174D01*
X144112856Y-75274030D01*
X144155860Y-75279701D01*
G37*
G36*
X142857465Y-75279701D02*
G01*
X142919608Y-75322023D01*
X142948766Y-75384621D01*
X142956977Y-75459776D01*
X142956977Y-76695157D01*
X142950628Y-76757091D01*
X142918509Y-76824117D01*
X142885674Y-76851130D01*
X142814461Y-76868447D01*
X142773276Y-76863382D01*
X142709315Y-76825582D01*
X142679600Y-76776601D01*
X142668139Y-76702106D01*
X142664151Y-76706780D01*
X142612595Y-76760369D01*
X142603246Y-76768691D01*
X142542253Y-76812393D01*
X142511756Y-76828604D01*
X142442235Y-76853060D01*
X142393101Y-76863022D01*
X142316939Y-76868447D01*
X142263679Y-76865699D01*
X142188082Y-76851273D01*
X142117637Y-76824483D01*
X142073925Y-76800051D01*
X142014797Y-76754903D01*
X141963397Y-76699553D01*
X141930151Y-76651778D01*
X141893305Y-76581135D01*
X141867043Y-76509410D01*
X141865015Y-76502566D01*
X141846951Y-76424539D01*
X141837291Y-76349249D01*
X141834635Y-76283729D01*
X142139985Y-76283729D01*
X142141783Y-76335105D01*
X142152138Y-76409081D01*
X142174791Y-76480208D01*
X142213624Y-76544214D01*
X142247139Y-76579189D01*
X142310628Y-76619160D01*
X142388013Y-76633974D01*
X142451396Y-76627018D01*
X142524726Y-76596106D01*
X142580721Y-76546046D01*
X142601936Y-76516664D01*
X142633577Y-76446468D01*
X142649758Y-76370260D01*
X142654360Y-76292156D01*
X142652695Y-76244010D01*
X142642090Y-76168654D01*
X142619556Y-76097250D01*
X142617334Y-76092182D01*
X142578248Y-76025351D01*
X142524667Y-75973053D01*
X142464716Y-75942548D01*
X142388013Y-75930554D01*
X142326514Y-75938689D01*
X142257954Y-75973053D01*
X142205532Y-76028261D01*
X142171126Y-76094319D01*
X142158992Y-76130305D01*
X142144364Y-76205230D01*
X142139985Y-76283729D01*
X141834635Y-76283729D01*
X141834071Y-76269808D01*
X141836928Y-76194795D01*
X141847192Y-76114561D01*
X141864921Y-76040189D01*
X141893788Y-75963527D01*
X141905351Y-75939682D01*
X141945257Y-75874638D01*
X141998773Y-75813787D01*
X142061949Y-75764958D01*
X142089604Y-75748815D01*
X142163499Y-75717874D01*
X142235817Y-75701529D01*
X142313642Y-75696081D01*
X142380550Y-75699675D01*
X142453747Y-75713827D01*
X142522836Y-75741510D01*
X142548692Y-75756154D01*
X142610394Y-75798414D01*
X142667916Y-75850687D01*
X142667916Y-75447686D01*
X142674204Y-75386817D01*
X142706018Y-75319825D01*
X142742296Y-75290174D01*
X142814461Y-75274030D01*
X142857465Y-75279701D01*
G37*
G36*
X141347905Y-75868272D02*
G01*
X141347905Y-76684898D01*
X141357485Y-76759629D01*
X141391503Y-76821552D01*
X141454844Y-76861852D01*
X141501778Y-76868447D01*
X141575709Y-76849699D01*
X141610588Y-76820453D01*
X141644360Y-76753760D01*
X141652354Y-76684898D01*
X141652354Y-75876699D01*
X141643177Y-75803181D01*
X141610588Y-75742243D01*
X141548335Y-75702573D01*
X141501778Y-75696081D01*
X141427275Y-75714113D01*
X141391503Y-75742243D01*
X141355101Y-75808766D01*
X141347905Y-75868272D01*
G37*
G36*
X141498481Y-75578845D02*
G01*
X141573449Y-75562909D01*
X141606925Y-75541842D01*
X141646986Y-75480338D01*
X141652354Y-75437794D01*
X141632474Y-75366636D01*
X141606192Y-75337044D01*
X141538813Y-75302152D01*
X141498481Y-75297477D01*
X141423942Y-75314447D01*
X141394067Y-75333381D01*
X141353360Y-75394381D01*
X141347905Y-75437794D01*
X141365508Y-75509378D01*
X141392968Y-75541475D01*
X141458575Y-75574429D01*
X141498481Y-75578845D01*
G37*
G36*
X140344631Y-75320971D02*
G01*
X140423170Y-75331389D01*
X140489880Y-75368551D01*
X140498392Y-75377906D01*
X140529647Y-75444435D01*
X140537508Y-75519127D01*
X140537508Y-76619319D01*
X140535906Y-76667211D01*
X140523952Y-76742051D01*
X140516354Y-76762335D01*
X140464601Y-76817889D01*
X140408547Y-76838222D01*
X140331977Y-76845000D01*
X139933373Y-76845000D01*
X139901139Y-76844678D01*
X139822103Y-76840826D01*
X139744695Y-76831810D01*
X139734204Y-76830087D01*
X139658164Y-76812420D01*
X139586792Y-76786381D01*
X139577632Y-76782222D01*
X139511756Y-76745740D01*
X139450871Y-76699919D01*
X139413113Y-76662459D01*
X139363259Y-76601802D01*
X139321545Y-76535788D01*
X139292715Y-76476204D01*
X139266870Y-76405785D01*
X139247173Y-76330258D01*
X139242851Y-76308691D01*
X139231517Y-76233873D01*
X139224905Y-76154546D01*
X139222993Y-76079298D01*
X139223013Y-76077100D01*
X139556750Y-76077100D01*
X139559086Y-76152680D01*
X139568574Y-76238960D01*
X139585361Y-76316134D01*
X139615140Y-76396724D01*
X139655428Y-76464202D01*
X139706227Y-76518569D01*
X139716712Y-76527195D01*
X139783530Y-76563265D01*
X139797338Y-76567902D01*
X139870358Y-76583049D01*
X139913605Y-76585804D01*
X139987961Y-76587079D01*
X140208146Y-76587079D01*
X140208146Y-75578845D01*
X140018003Y-75578845D01*
X140009389Y-75578874D01*
X139935600Y-75581743D01*
X139861497Y-75590437D01*
X139783530Y-75608520D01*
X139721175Y-75638273D01*
X139666093Y-75686727D01*
X139622330Y-75747006D01*
X139614388Y-75761003D01*
X139584993Y-75834938D01*
X139567574Y-75915693D01*
X139559056Y-75997961D01*
X139556750Y-76077100D01*
X139223013Y-76077100D01*
X139223227Y-76053402D01*
X139226742Y-75978205D01*
X139237991Y-75883751D01*
X139256738Y-75795938D01*
X139282985Y-75714766D01*
X139316730Y-75640233D01*
X139357975Y-75572342D01*
X139406718Y-75511090D01*
X139462961Y-75456479D01*
X139522932Y-75412186D01*
X139593610Y-75374869D01*
X139669224Y-75349501D01*
X139705675Y-75341268D01*
X139785015Y-75328989D01*
X139863764Y-75322710D01*
X139939601Y-75320924D01*
X140338205Y-75320924D01*
X140344631Y-75320971D01*
G37*
X143754510Y-91729400D02*
X144897368Y-91729400D01*
X144325939Y-92300828D02*
X144325939Y-91157971D01*
D11*
X136085238Y-88984819D02*
X136418571Y-88508628D01*
X136656666Y-88984819D02*
X136656666Y-87984819D01*
X136656666Y-87984819D02*
X136275714Y-87984819D01*
X136275714Y-87984819D02*
X136180476Y-88032438D01*
X136180476Y-88032438D02*
X136132857Y-88080057D01*
X136132857Y-88080057D02*
X136085238Y-88175295D01*
X136085238Y-88175295D02*
X136085238Y-88318152D01*
X136085238Y-88318152D02*
X136132857Y-88413390D01*
X136132857Y-88413390D02*
X136180476Y-88461009D01*
X136180476Y-88461009D02*
X136275714Y-88508628D01*
X136275714Y-88508628D02*
X136656666Y-88508628D01*
X135799523Y-87984819D02*
X135466190Y-88984819D01*
X135466190Y-88984819D02*
X135132857Y-87984819D01*
X134275714Y-88984819D02*
X134847142Y-88984819D01*
X134561428Y-88984819D02*
X134561428Y-87984819D01*
X134561428Y-87984819D02*
X134656666Y-88127676D01*
X134656666Y-88127676D02*
X134751904Y-88222914D01*
X134751904Y-88222914D02*
X134847142Y-88270533D01*
X158366666Y-65959580D02*
X158414285Y-66007200D01*
X158414285Y-66007200D02*
X158557142Y-66054819D01*
X158557142Y-66054819D02*
X158652380Y-66054819D01*
X158652380Y-66054819D02*
X158795237Y-66007200D01*
X158795237Y-66007200D02*
X158890475Y-65911961D01*
X158890475Y-65911961D02*
X158938094Y-65816723D01*
X158938094Y-65816723D02*
X158985713Y-65626247D01*
X158985713Y-65626247D02*
X158985713Y-65483390D01*
X158985713Y-65483390D02*
X158938094Y-65292914D01*
X158938094Y-65292914D02*
X158890475Y-65197676D01*
X158890475Y-65197676D02*
X158795237Y-65102438D01*
X158795237Y-65102438D02*
X158652380Y-65054819D01*
X158652380Y-65054819D02*
X158557142Y-65054819D01*
X158557142Y-65054819D02*
X158414285Y-65102438D01*
X158414285Y-65102438D02*
X158366666Y-65150057D01*
X157509523Y-65054819D02*
X157699999Y-65054819D01*
X157699999Y-65054819D02*
X157795237Y-65102438D01*
X157795237Y-65102438D02*
X157842856Y-65150057D01*
X157842856Y-65150057D02*
X157938094Y-65292914D01*
X157938094Y-65292914D02*
X157985713Y-65483390D01*
X157985713Y-65483390D02*
X157985713Y-65864342D01*
X157985713Y-65864342D02*
X157938094Y-65959580D01*
X157938094Y-65959580D02*
X157890475Y-66007200D01*
X157890475Y-66007200D02*
X157795237Y-66054819D01*
X157795237Y-66054819D02*
X157604761Y-66054819D01*
X157604761Y-66054819D02*
X157509523Y-66007200D01*
X157509523Y-66007200D02*
X157461904Y-65959580D01*
X157461904Y-65959580D02*
X157414285Y-65864342D01*
X157414285Y-65864342D02*
X157414285Y-65626247D01*
X157414285Y-65626247D02*
X157461904Y-65531009D01*
X157461904Y-65531009D02*
X157509523Y-65483390D01*
X157509523Y-65483390D02*
X157604761Y-65435771D01*
X157604761Y-65435771D02*
X157795237Y-65435771D01*
X157795237Y-65435771D02*
X157890475Y-65483390D01*
X157890475Y-65483390D02*
X157938094Y-65531009D01*
X157938094Y-65531009D02*
X157985713Y-65626247D01*
X151566666Y-91559580D02*
X151614285Y-91607200D01*
X151614285Y-91607200D02*
X151757142Y-91654819D01*
X151757142Y-91654819D02*
X151852380Y-91654819D01*
X151852380Y-91654819D02*
X151995237Y-91607200D01*
X151995237Y-91607200D02*
X152090475Y-91511961D01*
X152090475Y-91511961D02*
X152138094Y-91416723D01*
X152138094Y-91416723D02*
X152185713Y-91226247D01*
X152185713Y-91226247D02*
X152185713Y-91083390D01*
X152185713Y-91083390D02*
X152138094Y-90892914D01*
X152138094Y-90892914D02*
X152090475Y-90797676D01*
X152090475Y-90797676D02*
X151995237Y-90702438D01*
X151995237Y-90702438D02*
X151852380Y-90654819D01*
X151852380Y-90654819D02*
X151757142Y-90654819D01*
X151757142Y-90654819D02*
X151614285Y-90702438D01*
X151614285Y-90702438D02*
X151566666Y-90750057D01*
X150661904Y-90654819D02*
X151138094Y-90654819D01*
X151138094Y-90654819D02*
X151185713Y-91131009D01*
X151185713Y-91131009D02*
X151138094Y-91083390D01*
X151138094Y-91083390D02*
X151042856Y-91035771D01*
X151042856Y-91035771D02*
X150804761Y-91035771D01*
X150804761Y-91035771D02*
X150709523Y-91083390D01*
X150709523Y-91083390D02*
X150661904Y-91131009D01*
X150661904Y-91131009D02*
X150614285Y-91226247D01*
X150614285Y-91226247D02*
X150614285Y-91464342D01*
X150614285Y-91464342D02*
X150661904Y-91559580D01*
X150661904Y-91559580D02*
X150709523Y-91607200D01*
X150709523Y-91607200D02*
X150804761Y-91654819D01*
X150804761Y-91654819D02*
X151042856Y-91654819D01*
X151042856Y-91654819D02*
X151138094Y-91607200D01*
X151138094Y-91607200D02*
X151185713Y-91559580D01*
X128833332Y-78582200D02*
X128690475Y-78629819D01*
X128690475Y-78629819D02*
X128452380Y-78629819D01*
X128452380Y-78629819D02*
X128357142Y-78582200D01*
X128357142Y-78582200D02*
X128309523Y-78534580D01*
X128309523Y-78534580D02*
X128261904Y-78439342D01*
X128261904Y-78439342D02*
X128261904Y-78344104D01*
X128261904Y-78344104D02*
X128309523Y-78248866D01*
X128309523Y-78248866D02*
X128357142Y-78201247D01*
X128357142Y-78201247D02*
X128452380Y-78153628D01*
X128452380Y-78153628D02*
X128642856Y-78106009D01*
X128642856Y-78106009D02*
X128738094Y-78058390D01*
X128738094Y-78058390D02*
X128785713Y-78010771D01*
X128785713Y-78010771D02*
X128833332Y-77915533D01*
X128833332Y-77915533D02*
X128833332Y-77820295D01*
X128833332Y-77820295D02*
X128785713Y-77725057D01*
X128785713Y-77725057D02*
X128738094Y-77677438D01*
X128738094Y-77677438D02*
X128642856Y-77629819D01*
X128642856Y-77629819D02*
X128404761Y-77629819D01*
X128404761Y-77629819D02*
X128261904Y-77677438D01*
X127928570Y-77629819D02*
X127690475Y-78629819D01*
X127690475Y-78629819D02*
X127499999Y-77915533D01*
X127499999Y-77915533D02*
X127309523Y-78629819D01*
X127309523Y-78629819D02*
X127071428Y-77629819D01*
X126166666Y-78629819D02*
X126738094Y-78629819D01*
X126452380Y-78629819D02*
X126452380Y-77629819D01*
X126452380Y-77629819D02*
X126547618Y-77772676D01*
X126547618Y-77772676D02*
X126642856Y-77867914D01*
X126642856Y-77867914D02*
X126738094Y-77915533D01*
X164883333Y-70919819D02*
X164883333Y-71634104D01*
X164883333Y-71634104D02*
X164930952Y-71776961D01*
X164930952Y-71776961D02*
X165026190Y-71872200D01*
X165026190Y-71872200D02*
X165169047Y-71919819D01*
X165169047Y-71919819D02*
X165264285Y-71919819D01*
X164502380Y-70919819D02*
X163883333Y-70919819D01*
X163883333Y-70919819D02*
X164216666Y-71300771D01*
X164216666Y-71300771D02*
X164073809Y-71300771D01*
X164073809Y-71300771D02*
X163978571Y-71348390D01*
X163978571Y-71348390D02*
X163930952Y-71396009D01*
X163930952Y-71396009D02*
X163883333Y-71491247D01*
X163883333Y-71491247D02*
X163883333Y-71729342D01*
X163883333Y-71729342D02*
X163930952Y-71824580D01*
X163930952Y-71824580D02*
X163978571Y-71872200D01*
X163978571Y-71872200D02*
X164073809Y-71919819D01*
X164073809Y-71919819D02*
X164359523Y-71919819D01*
X164359523Y-71919819D02*
X164454761Y-71872200D01*
X164454761Y-71872200D02*
X164502380Y-71824580D01*
X146933333Y-91354819D02*
X146933333Y-92069104D01*
X146933333Y-92069104D02*
X146980952Y-92211961D01*
X146980952Y-92211961D02*
X147076190Y-92307200D01*
X147076190Y-92307200D02*
X147219047Y-92354819D01*
X147219047Y-92354819D02*
X147314285Y-92354819D01*
X146504761Y-91450057D02*
X146457142Y-91402438D01*
X146457142Y-91402438D02*
X146361904Y-91354819D01*
X146361904Y-91354819D02*
X146123809Y-91354819D01*
X146123809Y-91354819D02*
X146028571Y-91402438D01*
X146028571Y-91402438D02*
X145980952Y-91450057D01*
X145980952Y-91450057D02*
X145933333Y-91545295D01*
X145933333Y-91545295D02*
X145933333Y-91640533D01*
X145933333Y-91640533D02*
X145980952Y-91783390D01*
X145980952Y-91783390D02*
X146552380Y-92354819D01*
X146552380Y-92354819D02*
X145933333Y-92354819D01*
X158259260Y-85485355D02*
X158764336Y-85990431D01*
X158764336Y-85990431D02*
X158899023Y-86057775D01*
X158899023Y-86057775D02*
X159033710Y-86057775D01*
X159033710Y-86057775D02*
X159168397Y-85990431D01*
X159168397Y-85990431D02*
X159235741Y-85923088D01*
X158259260Y-86899569D02*
X158663321Y-86495508D01*
X158461290Y-86697538D02*
X157754183Y-85990431D01*
X157754183Y-85990431D02*
X157922542Y-86024103D01*
X157922542Y-86024103D02*
X158057229Y-86024103D01*
X158057229Y-86024103D02*
X158158244Y-85990431D01*
G04 #@! TO.C,RV1*
D12*
X142340000Y-86970000D02*
X129140000Y-86970000D01*
X129140000Y-89970000D01*
X142340000Y-89970000D01*
X142340000Y-86970000D01*
G04 #@! TO.C,C6*
X155440000Y-66540000D02*
X155440000Y-68240000D01*
X155440000Y-72060000D02*
X155440000Y-70360000D01*
X159895563Y-66540000D02*
X155440000Y-66540000D01*
X159895563Y-72060000D02*
X155440000Y-72060000D01*
X160960000Y-67604437D02*
X159895563Y-66540000D01*
X160960000Y-67604437D02*
X160960000Y-68240000D01*
X160960000Y-70995563D02*
X159895563Y-72060000D01*
X160960000Y-70995563D02*
X160960000Y-70360000D01*
X161512500Y-67302500D02*
X161512500Y-67927500D01*
X161825000Y-67615000D02*
X161200000Y-67615000D01*
G04 #@! TO.C,C5*
X147775000Y-89185000D02*
X148400000Y-89185000D01*
X148087500Y-89497500D02*
X148087500Y-88872500D01*
X148640000Y-85804437D02*
X148640000Y-86440000D01*
X148640000Y-85804437D02*
X149704437Y-84740000D01*
X148640000Y-89195563D02*
X148640000Y-88560000D01*
X148640000Y-89195563D02*
X149704437Y-90260000D01*
X149704437Y-84740000D02*
X154160000Y-84740000D01*
X149704437Y-90260000D02*
X154160000Y-90260000D01*
X154160000Y-84740000D02*
X154160000Y-86440000D01*
X154160000Y-90260000D02*
X154160000Y-88560000D01*
G04 #@! TO.C,SW1*
X124050000Y-75045000D02*
X124050000Y-74255000D01*
X124650000Y-73245000D02*
X130350000Y-73245000D01*
X125900000Y-76095000D02*
X127600000Y-76095000D01*
X126100000Y-71955000D02*
X126300000Y-71745000D01*
X126100000Y-73245000D02*
X126100000Y-71955000D01*
X126300000Y-71745000D02*
X127200000Y-71745000D01*
X127400000Y-71955000D02*
X127200000Y-71745000D01*
X127400000Y-71955000D02*
X127400000Y-73245000D01*
X128900000Y-76095000D02*
X129100000Y-76095000D01*
X130950000Y-74255000D02*
X130950000Y-75045000D01*
G04 #@! TO.C,J3*
X162785000Y-72465000D02*
X162785000Y-72530000D01*
X162785000Y-78870000D02*
X162785000Y-78935000D01*
X166315000Y-72465000D02*
X162785000Y-72465000D01*
X166315000Y-72465000D02*
X166315000Y-72530000D01*
X166315000Y-78870000D02*
X166315000Y-78935000D01*
X166315000Y-78935000D02*
X162785000Y-78935000D01*
X167640000Y-72530000D02*
X166315000Y-72530000D01*
G04 #@! TO.C,J2*
X142540000Y-94390000D02*
X143560000Y-94390000D01*
X142540000Y-98640000D02*
X142540000Y-94390000D01*
X143560000Y-94390000D02*
X143560000Y-95990000D01*
X143560000Y-95990000D02*
X144840000Y-95990000D01*
X148360000Y-95990000D02*
X148360000Y-93100000D01*
X148940000Y-102210000D02*
X144260000Y-102210000D01*
X149640000Y-94390000D02*
X149640000Y-95990000D01*
X149640000Y-95990000D02*
X148360000Y-95990000D01*
X150660000Y-94390000D02*
X149640000Y-94390000D01*
X150660000Y-98640000D02*
X150660000Y-94390000D01*
G04 #@! TO.C,J1*
X158409059Y-92583658D02*
X157412039Y-91586637D01*
X160855649Y-84367077D02*
X161421334Y-83801391D01*
X161421334Y-83801391D02*
X161527400Y-83907457D01*
X164886158Y-86106559D02*
X163889137Y-85109539D01*
G04 #@! TD*
%LPC*%
D13*
G04 #@! TO.C,H2*
X162300000Y-64500000D03*
G04 #@! TD*
G04 #@! TO.C,H1*
X131200000Y-64600000D03*
G04 #@! TD*
D14*
G04 #@! TO.C,RV1*
X139390000Y-90280000D03*
X132020000Y-90280000D03*
D15*
X128690000Y-87910000D03*
X142790000Y-89090000D03*
X142800000Y-87900000D03*
X128690000Y-89040000D03*
G04 #@! TD*
D16*
G04 #@! TO.C,C6*
X160400000Y-69300000D03*
X156000000Y-69300000D03*
G04 #@! TD*
D17*
G04 #@! TO.C,C5*
X149200000Y-87500000D03*
X153600000Y-87500000D03*
G04 #@! TD*
D18*
G04 #@! TO.C,SW1*
X123850000Y-73545000D03*
X123850000Y-75755000D03*
D19*
X126000000Y-74645000D03*
X129000000Y-74645000D03*
D18*
X131150000Y-73545000D03*
X131150000Y-75755000D03*
D20*
X125250000Y-76405000D03*
X128250000Y-76405000D03*
X129750000Y-76405000D03*
G04 #@! TD*
D21*
G04 #@! TO.C,J3*
X166500000Y-73160000D03*
X162600000Y-73160000D03*
X166500000Y-74430000D03*
X162600000Y-74430000D03*
X166500000Y-75700000D03*
X162600000Y-75700000D03*
X166500000Y-76970000D03*
X162600000Y-76970000D03*
X166500000Y-78240000D03*
X162600000Y-78240000D03*
G04 #@! TD*
D22*
G04 #@! TO.C,J2*
X147600000Y-94850000D03*
X145600000Y-94850000D03*
D23*
X149950000Y-100600000D03*
X143250000Y-100600000D03*
G04 #@! TD*
D24*
G04 #@! TO.C,J1*
X162156725Y-85767148D03*
X158069648Y-89854225D03*
D25*
X161615789Y-84787805D03*
X161050103Y-85353491D03*
D26*
X160236931Y-86166664D03*
X159529824Y-86873770D03*
X159176270Y-87227324D03*
X158469164Y-87934431D03*
D25*
X157655991Y-88747603D03*
X157090305Y-89313289D03*
X157090305Y-89313289D03*
X157655991Y-88747603D03*
D26*
X158115610Y-88287984D03*
X158822717Y-87580877D03*
X159883377Y-86520217D03*
X160590484Y-85813110D03*
D25*
X161050103Y-85353491D03*
X161615789Y-84787805D03*
D27*
X166151879Y-86622747D03*
X163372949Y-83843818D03*
X158925247Y-93849379D03*
X156146318Y-91070449D03*
G04 #@! TD*
%LPD*%
M02*
