G04 #@! TF.GenerationSoftware,KiCad,Pcbnew,8.0.5*
G04 #@! TF.CreationDate,2024-09-23T19:13:39-07:00*
G04 #@! TF.ProjectId,class 2a,636c6173-7320-4326-912e-6b696361645f,rev?*
G04 #@! TF.SameCoordinates,Original*
G04 #@! TF.FileFunction,Soldermask,Top*
G04 #@! TF.FilePolarity,Negative*
%FSLAX46Y46*%
G04 Gerber Fmt 4.6, Leading zero omitted, Abs format (unit mm)*
G04 Created by KiCad (PCBNEW 8.0.5) date 2024-09-23 19:13:39*
%MOMM*%
%LPD*%
G01*
G04 APERTURE LIST*
G04 Aperture macros list*
%AMRoundRect*
0 Rectangle with rounded corners*
0 $1 Rounding radius*
0 $2 $3 $4 $5 $6 $7 $8 $9 X,Y pos of 4 corners*
0 Add a 4 corners polygon primitive as box body*
4,1,4,$2,$3,$4,$5,$6,$7,$8,$9,$2,$3,0*
0 Add four circle primitives for the rounded corners*
1,1,$1+$1,$2,$3*
1,1,$1+$1,$4,$5*
1,1,$1+$1,$6,$7*
1,1,$1+$1,$8,$9*
0 Add four rect primitives between the rounded corners*
20,1,$1+$1,$2,$3,$4,$5,0*
20,1,$1+$1,$4,$5,$6,$7,0*
20,1,$1+$1,$6,$7,$8,$9,0*
20,1,$1+$1,$8,$9,$2,$3,0*%
%AMFreePoly0*
4,1,9,3.862500,-0.866500,0.737500,-0.866500,0.737500,-0.450000,-0.737500,-0.450000,-0.737500,0.450000,0.737500,0.450000,0.737500,0.866500,3.862500,0.866500,3.862500,-0.866500,3.862500,-0.866500,$1*%
G04 Aperture macros list end*
%ADD10RoundRect,0.225000X-0.225000X-0.250000X0.225000X-0.250000X0.225000X0.250000X-0.225000X0.250000X0*%
%ADD11R,1.500000X0.900000*%
%ADD12RoundRect,0.200000X-0.200000X-0.275000X0.200000X-0.275000X0.200000X0.275000X-0.200000X0.275000X0*%
%ADD13RoundRect,0.250000X1.050000X0.550000X-1.050000X0.550000X-1.050000X-0.550000X1.050000X-0.550000X0*%
%ADD14RoundRect,0.150000X-0.512500X-0.150000X0.512500X-0.150000X0.512500X0.150000X-0.512500X0.150000X0*%
%ADD15C,2.500000*%
%ADD16RoundRect,0.225000X0.250000X-0.225000X0.250000X0.225000X-0.250000X0.225000X-0.250000X-0.225000X0*%
%ADD17R,1.903000X2.790000*%
%ADD18R,1.300000X0.900000*%
%ADD19FreePoly0,0.000000*%
%ADD20RoundRect,0.100000X-0.637500X-0.100000X0.637500X-0.100000X0.637500X0.100000X-0.637500X0.100000X0*%
%ADD21RoundRect,0.125000X-0.125000X-0.125000X0.125000X-0.125000X0.125000X0.125000X-0.125000X0.125000X0*%
%ADD22RoundRect,0.250000X-1.050000X-0.550000X1.050000X-0.550000X1.050000X0.550000X-1.050000X0.550000X0*%
%ADD23C,0.900000*%
%ADD24C,0.650000*%
G04 APERTURE END LIST*
D10*
G04 #@! TO.C,C1*
X158025000Y-73100000D03*
X159575000Y-73100000D03*
G04 #@! TD*
G04 #@! TO.C,C3*
X145850000Y-83400000D03*
X147400000Y-83400000D03*
G04 #@! TD*
D11*
G04 #@! TO.C,D7*
X137300000Y-92000000D03*
X137300000Y-95300000D03*
X142200000Y-95300000D03*
X142200000Y-92000000D03*
G04 #@! TD*
D12*
G04 #@! TO.C,R1*
X149300000Y-84300000D03*
X150950000Y-84300000D03*
G04 #@! TD*
D11*
G04 #@! TO.C,D6*
X144800000Y-99200000D03*
X144800000Y-102500000D03*
X149700000Y-102500000D03*
X149700000Y-99200000D03*
G04 #@! TD*
D13*
G04 #@! TO.C,C8*
X148600000Y-94100000D03*
X145000000Y-94100000D03*
G04 #@! TD*
D14*
G04 #@! TO.C,U2*
X147400000Y-86250000D03*
X147400000Y-87200000D03*
X147400000Y-88150000D03*
X149675000Y-88150000D03*
X149675000Y-86250000D03*
G04 #@! TD*
D11*
G04 #@! TO.C,D2*
X162100000Y-68400000D03*
X162100000Y-71700000D03*
X167000000Y-71700000D03*
X167000000Y-68400000D03*
G04 #@! TD*
G04 #@! TO.C,D10*
X126300000Y-68500000D03*
X126300000Y-71800000D03*
X131200000Y-71800000D03*
X131200000Y-68500000D03*
G04 #@! TD*
D10*
G04 #@! TO.C,C2*
X145900000Y-81600000D03*
X147450000Y-81600000D03*
G04 #@! TD*
D15*
G04 #@! TO.C,H2*
X162300000Y-64500000D03*
G04 #@! TD*
D11*
G04 #@! TO.C,D1*
X153000000Y-66300000D03*
X153000000Y-69600000D03*
X157900000Y-69600000D03*
X157900000Y-66300000D03*
G04 #@! TD*
G04 #@! TO.C,D8*
X131400000Y-85600000D03*
X131400000Y-88900000D03*
X136300000Y-88900000D03*
X136300000Y-85600000D03*
G04 #@! TD*
G04 #@! TO.C,D4*
X158900000Y-84600000D03*
X158900000Y-87900000D03*
X163800000Y-87900000D03*
X163800000Y-84600000D03*
G04 #@! TD*
D14*
G04 #@! TO.C,U3*
X137700000Y-80750000D03*
X137700000Y-81700000D03*
X137700000Y-82650000D03*
X139975000Y-82650000D03*
X139975000Y-80750000D03*
G04 #@! TD*
D11*
G04 #@! TO.C,D5*
X152000000Y-92000000D03*
X152000000Y-95300000D03*
X156900000Y-95300000D03*
X156900000Y-92000000D03*
G04 #@! TD*
D16*
G04 #@! TO.C,C4*
X161700000Y-79650000D03*
X161700000Y-78100000D03*
G04 #@! TD*
D11*
G04 #@! TO.C,D11*
X135000000Y-65900000D03*
X135000000Y-69200000D03*
X139900000Y-69200000D03*
X139900000Y-65900000D03*
G04 #@! TD*
D17*
G04 #@! TO.C,L1*
X139300000Y-87700000D03*
X144153000Y-87700000D03*
G04 #@! TD*
D18*
G04 #@! TO.C,U4*
X152750000Y-84400000D03*
D19*
X152837500Y-85900000D03*
D18*
X152750000Y-87400000D03*
G04 #@! TD*
D20*
G04 #@! TO.C,U1*
X153637500Y-75775000D03*
X153637500Y-76425000D03*
X153637500Y-77075000D03*
X153637500Y-77725000D03*
X153637500Y-78375000D03*
X153637500Y-79025000D03*
X153637500Y-79675000D03*
X153637500Y-80325000D03*
X153637500Y-80975000D03*
X153637500Y-81625000D03*
X159362500Y-81625000D03*
X159362500Y-80975000D03*
X159362500Y-80325000D03*
X159362500Y-79675000D03*
X159362500Y-79025000D03*
X159362500Y-78375000D03*
X159362500Y-77725000D03*
X159362500Y-77075000D03*
X159362500Y-76425000D03*
X159362500Y-75775000D03*
G04 #@! TD*
D12*
G04 #@! TO.C,R2*
X142450000Y-81600000D03*
X144100000Y-81600000D03*
G04 #@! TD*
D21*
G04 #@! TO.C,D13*
X133100000Y-81300000D03*
X135300000Y-81300000D03*
G04 #@! TD*
D11*
G04 #@! TO.C,D9*
X125400000Y-77700000D03*
X125400000Y-81000000D03*
X130300000Y-81000000D03*
X130300000Y-77700000D03*
G04 #@! TD*
G04 #@! TO.C,D12*
X144200000Y-73400000D03*
X144200000Y-76700000D03*
X149100000Y-76700000D03*
X149100000Y-73400000D03*
G04 #@! TD*
D12*
G04 #@! TO.C,R3*
X167250000Y-82900000D03*
X168900000Y-82900000D03*
G04 #@! TD*
D15*
G04 #@! TO.C,H1*
X131200000Y-64600000D03*
G04 #@! TD*
D11*
G04 #@! TO.C,D3*
X164400000Y-76700000D03*
X164400000Y-80000000D03*
X169300000Y-80000000D03*
X169300000Y-76700000D03*
G04 #@! TD*
D22*
G04 #@! TO.C,C7*
X134300000Y-74900000D03*
X137900000Y-74900000D03*
G04 #@! TD*
D23*
G04 #@! TO.C,SW1*
X126000000Y-74645000D03*
X129000000Y-74645000D03*
G04 #@! TD*
D24*
G04 #@! TO.C,J1*
X162156725Y-85767148D03*
X158069648Y-89854225D03*
G04 #@! TD*
M02*
