G04 #@! TF.GenerationSoftware,KiCad,Pcbnew,8.0.5*
G04 #@! TF.CreationDate,2024-09-23T19:13:39-07:00*
G04 #@! TF.ProjectId,class 2a,636c6173-7320-4326-912e-6b696361645f,rev?*
G04 #@! TF.SameCoordinates,Original*
G04 #@! TF.FileFunction,Copper,L1,Top*
G04 #@! TF.FilePolarity,Positive*
%FSLAX46Y46*%
G04 Gerber Fmt 4.6, Leading zero omitted, Abs format (unit mm)*
G04 Created by KiCad (PCBNEW 8.0.5) date 2024-09-23 19:13:39*
%MOMM*%
%LPD*%
G01*
G04 APERTURE LIST*
G04 Aperture macros list*
%AMRoundRect*
0 Rectangle with rounded corners*
0 $1 Rounding radius*
0 $2 $3 $4 $5 $6 $7 $8 $9 X,Y pos of 4 corners*
0 Add a 4 corners polygon primitive as box body*
4,1,4,$2,$3,$4,$5,$6,$7,$8,$9,$2,$3,0*
0 Add four circle primitives for the rounded corners*
1,1,$1+$1,$2,$3*
1,1,$1+$1,$4,$5*
1,1,$1+$1,$6,$7*
1,1,$1+$1,$8,$9*
0 Add four rect primitives between the rounded corners*
20,1,$1+$1,$2,$3,$4,$5,0*
20,1,$1+$1,$4,$5,$6,$7,0*
20,1,$1+$1,$6,$7,$8,$9,0*
20,1,$1+$1,$8,$9,$2,$3,0*%
%AMFreePoly0*
4,1,9,3.862500,-0.866500,0.737500,-0.866500,0.737500,-0.450000,-0.737500,-0.450000,-0.737500,0.450000,0.737500,0.450000,0.737500,0.866500,3.862500,0.866500,3.862500,-0.866500,3.862500,-0.866500,$1*%
G04 Aperture macros list end*
%ADD10C,0.300000*%
G04 #@! TA.AperFunction,NonConductor*
%ADD11C,0.300000*%
G04 #@! TD*
G04 #@! TA.AperFunction,NonConductor*
%ADD12C,0.200000*%
G04 #@! TD*
G04 #@! TA.AperFunction,SMDPad,CuDef*
%ADD13RoundRect,0.225000X-0.225000X-0.250000X0.225000X-0.250000X0.225000X0.250000X-0.225000X0.250000X0*%
G04 #@! TD*
G04 #@! TA.AperFunction,SMDPad,CuDef*
%ADD14R,1.500000X0.900000*%
G04 #@! TD*
G04 #@! TA.AperFunction,SMDPad,CuDef*
%ADD15RoundRect,0.200000X-0.200000X-0.275000X0.200000X-0.275000X0.200000X0.275000X-0.200000X0.275000X0*%
G04 #@! TD*
G04 #@! TA.AperFunction,SMDPad,CuDef*
%ADD16RoundRect,0.250000X1.050000X0.550000X-1.050000X0.550000X-1.050000X-0.550000X1.050000X-0.550000X0*%
G04 #@! TD*
G04 #@! TA.AperFunction,SMDPad,CuDef*
%ADD17RoundRect,0.150000X-0.512500X-0.150000X0.512500X-0.150000X0.512500X0.150000X-0.512500X0.150000X0*%
G04 #@! TD*
G04 #@! TA.AperFunction,SMDPad,CuDef*
%ADD18RoundRect,0.225000X0.250000X-0.225000X0.250000X0.225000X-0.250000X0.225000X-0.250000X-0.225000X0*%
G04 #@! TD*
G04 #@! TA.AperFunction,SMDPad,CuDef*
%ADD19R,1.903000X2.790000*%
G04 #@! TD*
G04 #@! TA.AperFunction,SMDPad,CuDef*
%ADD20R,1.300000X0.900000*%
G04 #@! TD*
G04 #@! TA.AperFunction,SMDPad,CuDef*
%ADD21FreePoly0,0.000000*%
G04 #@! TD*
G04 #@! TA.AperFunction,SMDPad,CuDef*
%ADD22RoundRect,0.100000X-0.637500X-0.100000X0.637500X-0.100000X0.637500X0.100000X-0.637500X0.100000X0*%
G04 #@! TD*
G04 #@! TA.AperFunction,SMDPad,CuDef*
%ADD23RoundRect,0.125000X-0.125000X-0.125000X0.125000X-0.125000X0.125000X0.125000X-0.125000X0.125000X0*%
G04 #@! TD*
G04 #@! TA.AperFunction,SMDPad,CuDef*
%ADD24RoundRect,0.250000X-1.050000X-0.550000X1.050000X-0.550000X1.050000X0.550000X-1.050000X0.550000X0*%
G04 #@! TD*
G04 #@! TA.AperFunction,ViaPad*
%ADD25C,1.000000*%
G04 #@! TD*
G04 #@! TA.AperFunction,ViaPad*
%ADD26C,0.800000*%
G04 #@! TD*
G04 #@! TA.AperFunction,Conductor*
%ADD27C,1.000000*%
G04 #@! TD*
G04 #@! TA.AperFunction,Conductor*
%ADD28C,0.400600*%
G04 #@! TD*
G04 #@! TA.AperFunction,Conductor*
%ADD29C,0.250000*%
G04 #@! TD*
G04 #@! TA.AperFunction,Conductor*
%ADD30C,0.500800*%
G04 #@! TD*
G04 APERTURE END LIST*
D10*
D11*
X140806559Y-56878328D02*
X140092273Y-56878328D01*
X140092273Y-56878328D02*
X140020845Y-57592614D01*
X140020845Y-57592614D02*
X140092273Y-57521185D01*
X140092273Y-57521185D02*
X140235131Y-57449757D01*
X140235131Y-57449757D02*
X140592273Y-57449757D01*
X140592273Y-57449757D02*
X140735131Y-57521185D01*
X140735131Y-57521185D02*
X140806559Y-57592614D01*
X140806559Y-57592614D02*
X140877988Y-57735471D01*
X140877988Y-57735471D02*
X140877988Y-58092614D01*
X140877988Y-58092614D02*
X140806559Y-58235471D01*
X140806559Y-58235471D02*
X140735131Y-58306900D01*
X140735131Y-58306900D02*
X140592273Y-58378328D01*
X140592273Y-58378328D02*
X140235131Y-58378328D01*
X140235131Y-58378328D02*
X140092273Y-58306900D01*
X140092273Y-58306900D02*
X140020845Y-58235471D01*
X142306559Y-58378328D02*
X141449416Y-58378328D01*
X141877987Y-58378328D02*
X141877987Y-56878328D01*
X141877987Y-56878328D02*
X141735130Y-57092614D01*
X141735130Y-57092614D02*
X141592273Y-57235471D01*
X141592273Y-57235471D02*
X141449416Y-57306900D01*
X142949415Y-58235471D02*
X143020844Y-58306900D01*
X143020844Y-58306900D02*
X142949415Y-58378328D01*
X142949415Y-58378328D02*
X142877987Y-58306900D01*
X142877987Y-58306900D02*
X142949415Y-58235471D01*
X142949415Y-58235471D02*
X142949415Y-58378328D01*
X143520844Y-56878328D02*
X144449416Y-56878328D01*
X144449416Y-56878328D02*
X143949416Y-57449757D01*
X143949416Y-57449757D02*
X144163701Y-57449757D01*
X144163701Y-57449757D02*
X144306559Y-57521185D01*
X144306559Y-57521185D02*
X144377987Y-57592614D01*
X144377987Y-57592614D02*
X144449416Y-57735471D01*
X144449416Y-57735471D02*
X144449416Y-58092614D01*
X144449416Y-58092614D02*
X144377987Y-58235471D01*
X144377987Y-58235471D02*
X144306559Y-58306900D01*
X144306559Y-58306900D02*
X144163701Y-58378328D01*
X144163701Y-58378328D02*
X143735130Y-58378328D01*
X143735130Y-58378328D02*
X143592273Y-58306900D01*
X143592273Y-58306900D02*
X143520844Y-58235471D01*
X145377987Y-56878328D02*
X145520844Y-56878328D01*
X145520844Y-56878328D02*
X145663701Y-56949757D01*
X145663701Y-56949757D02*
X145735130Y-57021185D01*
X145735130Y-57021185D02*
X145806558Y-57164042D01*
X145806558Y-57164042D02*
X145877987Y-57449757D01*
X145877987Y-57449757D02*
X145877987Y-57806900D01*
X145877987Y-57806900D02*
X145806558Y-58092614D01*
X145806558Y-58092614D02*
X145735130Y-58235471D01*
X145735130Y-58235471D02*
X145663701Y-58306900D01*
X145663701Y-58306900D02*
X145520844Y-58378328D01*
X145520844Y-58378328D02*
X145377987Y-58378328D01*
X145377987Y-58378328D02*
X145235130Y-58306900D01*
X145235130Y-58306900D02*
X145163701Y-58235471D01*
X145163701Y-58235471D02*
X145092272Y-58092614D01*
X145092272Y-58092614D02*
X145020844Y-57806900D01*
X145020844Y-57806900D02*
X145020844Y-57449757D01*
X145020844Y-57449757D02*
X145092272Y-57164042D01*
X145092272Y-57164042D02*
X145163701Y-57021185D01*
X145163701Y-57021185D02*
X145235130Y-56949757D01*
X145235130Y-56949757D02*
X145377987Y-56878328D01*
X146806558Y-56878328D02*
X146949415Y-56878328D01*
X146949415Y-56878328D02*
X147092272Y-56949757D01*
X147092272Y-56949757D02*
X147163701Y-57021185D01*
X147163701Y-57021185D02*
X147235129Y-57164042D01*
X147235129Y-57164042D02*
X147306558Y-57449757D01*
X147306558Y-57449757D02*
X147306558Y-57806900D01*
X147306558Y-57806900D02*
X147235129Y-58092614D01*
X147235129Y-58092614D02*
X147163701Y-58235471D01*
X147163701Y-58235471D02*
X147092272Y-58306900D01*
X147092272Y-58306900D02*
X146949415Y-58378328D01*
X146949415Y-58378328D02*
X146806558Y-58378328D01*
X146806558Y-58378328D02*
X146663701Y-58306900D01*
X146663701Y-58306900D02*
X146592272Y-58235471D01*
X146592272Y-58235471D02*
X146520843Y-58092614D01*
X146520843Y-58092614D02*
X146449415Y-57806900D01*
X146449415Y-57806900D02*
X146449415Y-57449757D01*
X146449415Y-57449757D02*
X146520843Y-57164042D01*
X146520843Y-57164042D02*
X146592272Y-57021185D01*
X146592272Y-57021185D02*
X146663701Y-56949757D01*
X146663701Y-56949757D02*
X146806558Y-56878328D01*
X147806557Y-56878328D02*
X148735129Y-56878328D01*
X148735129Y-56878328D02*
X148235129Y-57449757D01*
X148235129Y-57449757D02*
X148449414Y-57449757D01*
X148449414Y-57449757D02*
X148592272Y-57521185D01*
X148592272Y-57521185D02*
X148663700Y-57592614D01*
X148663700Y-57592614D02*
X148735129Y-57735471D01*
X148735129Y-57735471D02*
X148735129Y-58092614D01*
X148735129Y-58092614D02*
X148663700Y-58235471D01*
X148663700Y-58235471D02*
X148592272Y-58306900D01*
X148592272Y-58306900D02*
X148449414Y-58378328D01*
X148449414Y-58378328D02*
X148020843Y-58378328D01*
X148020843Y-58378328D02*
X147877986Y-58306900D01*
X147877986Y-58306900D02*
X147806557Y-58235471D01*
X150520842Y-58378328D02*
X150520842Y-57378328D01*
X150520842Y-57521185D02*
X150592271Y-57449757D01*
X150592271Y-57449757D02*
X150735128Y-57378328D01*
X150735128Y-57378328D02*
X150949414Y-57378328D01*
X150949414Y-57378328D02*
X151092271Y-57449757D01*
X151092271Y-57449757D02*
X151163700Y-57592614D01*
X151163700Y-57592614D02*
X151163700Y-58378328D01*
X151163700Y-57592614D02*
X151235128Y-57449757D01*
X151235128Y-57449757D02*
X151377985Y-57378328D01*
X151377985Y-57378328D02*
X151592271Y-57378328D01*
X151592271Y-57378328D02*
X151735128Y-57449757D01*
X151735128Y-57449757D02*
X151806557Y-57592614D01*
X151806557Y-57592614D02*
X151806557Y-58378328D01*
X152520842Y-58378328D02*
X152520842Y-57378328D01*
X152520842Y-57521185D02*
X152592271Y-57449757D01*
X152592271Y-57449757D02*
X152735128Y-57378328D01*
X152735128Y-57378328D02*
X152949414Y-57378328D01*
X152949414Y-57378328D02*
X153092271Y-57449757D01*
X153092271Y-57449757D02*
X153163700Y-57592614D01*
X153163700Y-57592614D02*
X153163700Y-58378328D01*
X153163700Y-57592614D02*
X153235128Y-57449757D01*
X153235128Y-57449757D02*
X153377985Y-57378328D01*
X153377985Y-57378328D02*
X153592271Y-57378328D01*
X153592271Y-57378328D02*
X153735128Y-57449757D01*
X153735128Y-57449757D02*
X153806557Y-57592614D01*
X153806557Y-57592614D02*
X153806557Y-58378328D01*
D12*
X121299251Y-75170432D02*
X121299251Y-58913580D01*
X172599578Y-58913580D02*
X172599578Y-76514840D01*
X121299251Y-59500000D02*
X172599578Y-59500000D01*
X121299251Y-59500000D02*
X172599578Y-59500000D01*
X121299251Y-59500000D02*
X122425755Y-58913579D01*
X121299251Y-59500000D02*
X122425755Y-60086421D01*
X172599578Y-59500000D02*
X171473074Y-60086421D01*
X172599578Y-59500000D02*
X171473074Y-58913579D01*
D10*
D11*
X175378328Y-92186415D02*
X176378328Y-92186415D01*
X174806900Y-92543557D02*
X175878328Y-92900700D01*
X175878328Y-92900700D02*
X175878328Y-91972129D01*
X174878328Y-91543558D02*
X174878328Y-90543558D01*
X174878328Y-90543558D02*
X176378328Y-91186415D01*
X176235471Y-89972130D02*
X176306900Y-89900701D01*
X176306900Y-89900701D02*
X176378328Y-89972130D01*
X176378328Y-89972130D02*
X176306900Y-90043558D01*
X176306900Y-90043558D02*
X176235471Y-89972130D01*
X176235471Y-89972130D02*
X176378328Y-89972130D01*
X174878328Y-88543558D02*
X174878328Y-89257844D01*
X174878328Y-89257844D02*
X175592614Y-89329272D01*
X175592614Y-89329272D02*
X175521185Y-89257844D01*
X175521185Y-89257844D02*
X175449757Y-89114987D01*
X175449757Y-89114987D02*
X175449757Y-88757844D01*
X175449757Y-88757844D02*
X175521185Y-88614987D01*
X175521185Y-88614987D02*
X175592614Y-88543558D01*
X175592614Y-88543558D02*
X175735471Y-88472129D01*
X175735471Y-88472129D02*
X176092614Y-88472129D01*
X176092614Y-88472129D02*
X176235471Y-88543558D01*
X176235471Y-88543558D02*
X176306900Y-88614987D01*
X176306900Y-88614987D02*
X176378328Y-88757844D01*
X176378328Y-88757844D02*
X176378328Y-89114987D01*
X176378328Y-89114987D02*
X176306900Y-89257844D01*
X176306900Y-89257844D02*
X176235471Y-89329272D01*
X175021185Y-87900701D02*
X174949757Y-87829273D01*
X174949757Y-87829273D02*
X174878328Y-87686416D01*
X174878328Y-87686416D02*
X174878328Y-87329273D01*
X174878328Y-87329273D02*
X174949757Y-87186416D01*
X174949757Y-87186416D02*
X175021185Y-87114987D01*
X175021185Y-87114987D02*
X175164042Y-87043558D01*
X175164042Y-87043558D02*
X175306900Y-87043558D01*
X175306900Y-87043558D02*
X175521185Y-87114987D01*
X175521185Y-87114987D02*
X176378328Y-87972130D01*
X176378328Y-87972130D02*
X176378328Y-87043558D01*
X174878328Y-86543559D02*
X174878328Y-85543559D01*
X174878328Y-85543559D02*
X176378328Y-86186416D01*
X175521185Y-84757845D02*
X175449757Y-84900702D01*
X175449757Y-84900702D02*
X175378328Y-84972131D01*
X175378328Y-84972131D02*
X175235471Y-85043559D01*
X175235471Y-85043559D02*
X175164042Y-85043559D01*
X175164042Y-85043559D02*
X175021185Y-84972131D01*
X175021185Y-84972131D02*
X174949757Y-84900702D01*
X174949757Y-84900702D02*
X174878328Y-84757845D01*
X174878328Y-84757845D02*
X174878328Y-84472131D01*
X174878328Y-84472131D02*
X174949757Y-84329274D01*
X174949757Y-84329274D02*
X175021185Y-84257845D01*
X175021185Y-84257845D02*
X175164042Y-84186416D01*
X175164042Y-84186416D02*
X175235471Y-84186416D01*
X175235471Y-84186416D02*
X175378328Y-84257845D01*
X175378328Y-84257845D02*
X175449757Y-84329274D01*
X175449757Y-84329274D02*
X175521185Y-84472131D01*
X175521185Y-84472131D02*
X175521185Y-84757845D01*
X175521185Y-84757845D02*
X175592614Y-84900702D01*
X175592614Y-84900702D02*
X175664042Y-84972131D01*
X175664042Y-84972131D02*
X175806900Y-85043559D01*
X175806900Y-85043559D02*
X176092614Y-85043559D01*
X176092614Y-85043559D02*
X176235471Y-84972131D01*
X176235471Y-84972131D02*
X176306900Y-84900702D01*
X176306900Y-84900702D02*
X176378328Y-84757845D01*
X176378328Y-84757845D02*
X176378328Y-84472131D01*
X176378328Y-84472131D02*
X176306900Y-84329274D01*
X176306900Y-84329274D02*
X176235471Y-84257845D01*
X176235471Y-84257845D02*
X176092614Y-84186416D01*
X176092614Y-84186416D02*
X175806900Y-84186416D01*
X175806900Y-84186416D02*
X175664042Y-84257845D01*
X175664042Y-84257845D02*
X175592614Y-84329274D01*
X175592614Y-84329274D02*
X175521185Y-84472131D01*
X176378328Y-82400703D02*
X175378328Y-82400703D01*
X175521185Y-82400703D02*
X175449757Y-82329274D01*
X175449757Y-82329274D02*
X175378328Y-82186417D01*
X175378328Y-82186417D02*
X175378328Y-81972131D01*
X175378328Y-81972131D02*
X175449757Y-81829274D01*
X175449757Y-81829274D02*
X175592614Y-81757846D01*
X175592614Y-81757846D02*
X176378328Y-81757846D01*
X175592614Y-81757846D02*
X175449757Y-81686417D01*
X175449757Y-81686417D02*
X175378328Y-81543560D01*
X175378328Y-81543560D02*
X175378328Y-81329274D01*
X175378328Y-81329274D02*
X175449757Y-81186417D01*
X175449757Y-81186417D02*
X175592614Y-81114988D01*
X175592614Y-81114988D02*
X176378328Y-81114988D01*
X176378328Y-80400703D02*
X175378328Y-80400703D01*
X175521185Y-80400703D02*
X175449757Y-80329274D01*
X175449757Y-80329274D02*
X175378328Y-80186417D01*
X175378328Y-80186417D02*
X175378328Y-79972131D01*
X175378328Y-79972131D02*
X175449757Y-79829274D01*
X175449757Y-79829274D02*
X175592614Y-79757846D01*
X175592614Y-79757846D02*
X176378328Y-79757846D01*
X175592614Y-79757846D02*
X175449757Y-79686417D01*
X175449757Y-79686417D02*
X175378328Y-79543560D01*
X175378328Y-79543560D02*
X175378328Y-79329274D01*
X175378328Y-79329274D02*
X175449757Y-79186417D01*
X175449757Y-79186417D02*
X175592614Y-79114988D01*
X175592614Y-79114988D02*
X176378328Y-79114988D01*
D12*
X160355614Y-62208227D02*
X178086420Y-62208227D01*
X178086420Y-109736034D02*
X147472261Y-109736034D01*
X177500000Y-62208227D02*
X177500000Y-109736034D01*
X177500000Y-62208227D02*
X177500000Y-109736034D01*
X177500000Y-62208227D02*
X178086421Y-63334731D01*
X177500000Y-62208227D02*
X176913579Y-63334731D01*
X177500000Y-109736034D02*
X176913579Y-108609530D01*
X177500000Y-109736034D02*
X178086421Y-108609530D01*
D13*
G04 #@! TO.P,C1,1*
G04 #@! TO.N,+3V3*
X158025000Y-73100000D03*
G04 #@! TO.P,C1,2*
G04 #@! TO.N,GND*
X159575000Y-73100000D03*
G04 #@! TD*
G04 #@! TO.P,C3,1*
G04 #@! TO.N,+5V*
X145850000Y-83400000D03*
G04 #@! TO.P,C3,2*
G04 #@! TO.N,GND*
X147400000Y-83400000D03*
G04 #@! TD*
D14*
G04 #@! TO.P,D7,1,VDD*
G04 #@! TO.N,+5V*
X137300000Y-92000000D03*
G04 #@! TO.P,D7,2,DOUT*
G04 #@! TO.N,Net-(D12-DIN)*
X137300000Y-95300000D03*
G04 #@! TO.P,D7,3,VSS*
G04 #@! TO.N,GND*
X142200000Y-95300000D03*
G04 #@! TO.P,D7,4,DIN*
G04 #@! TO.N,Net-(D7-DIN)*
X142200000Y-92000000D03*
G04 #@! TD*
D15*
G04 #@! TO.P,R1,1*
G04 #@! TO.N,Net-(U2-PROG)*
X149300000Y-84300000D03*
G04 #@! TO.P,R1,2*
G04 #@! TO.N,GND*
X150950000Y-84300000D03*
G04 #@! TD*
D14*
G04 #@! TO.P,D6,1,VDD*
G04 #@! TO.N,+5V*
X144800000Y-99200000D03*
G04 #@! TO.P,D6,2,DOUT*
G04 #@! TO.N,Net-(D5-DIN)*
X144800000Y-102500000D03*
G04 #@! TO.P,D6,3,VSS*
G04 #@! TO.N,GND*
X149700000Y-102500000D03*
G04 #@! TO.P,D6,4,DIN*
G04 #@! TO.N,Net-(D3-DOUT)*
X149700000Y-99200000D03*
G04 #@! TD*
D16*
G04 #@! TO.P,C8,1*
G04 #@! TO.N,+5V*
X148600000Y-94100000D03*
G04 #@! TO.P,C8,2*
G04 #@! TO.N,GND*
X145000000Y-94100000D03*
G04 #@! TD*
D17*
G04 #@! TO.P,U2,1,STAT*
G04 #@! TO.N,unconnected-(U2-STAT-Pad1)*
X147400000Y-86250000D03*
G04 #@! TO.P,U2,2,V_{SS}*
G04 #@! TO.N,GND*
X147400000Y-87200000D03*
G04 #@! TO.P,U2,3,V_{BAT}*
G04 #@! TO.N,/VBat*
X147400000Y-88150000D03*
G04 #@! TO.P,U2,4,V_{DD}*
G04 #@! TO.N,/VUSB*
X149675000Y-88150000D03*
G04 #@! TO.P,U2,5,PROG*
G04 #@! TO.N,Net-(U2-PROG)*
X149675000Y-86250000D03*
G04 #@! TD*
D14*
G04 #@! TO.P,D2,1,VDD*
G04 #@! TO.N,+5V*
X162100000Y-68400000D03*
G04 #@! TO.P,D2,2,DOUT*
G04 #@! TO.N,Net-(D2-DOUT)*
X162100000Y-71700000D03*
G04 #@! TO.P,D2,3,VSS*
G04 #@! TO.N,GND*
X167000000Y-71700000D03*
G04 #@! TO.P,D2,4,DIN*
G04 #@! TO.N,Net-(D1-DOUT)*
X167000000Y-68400000D03*
G04 #@! TD*
G04 #@! TO.P,D10,1,VDD*
G04 #@! TO.N,+5V*
X126300000Y-68500000D03*
G04 #@! TO.P,D10,2,DOUT*
G04 #@! TO.N,unconnected-(D10-DOUT-Pad2)*
X126300000Y-71800000D03*
G04 #@! TO.P,D10,3,VSS*
G04 #@! TO.N,GND*
X131200000Y-71800000D03*
G04 #@! TO.P,D10,4,DIN*
G04 #@! TO.N,Net-(D10-DIN)*
X131200000Y-68500000D03*
G04 #@! TD*
D13*
G04 #@! TO.P,C2,1*
G04 #@! TO.N,+5V*
X145900000Y-81600000D03*
G04 #@! TO.P,C2,2*
G04 #@! TO.N,GND*
X147450000Y-81600000D03*
G04 #@! TD*
D14*
G04 #@! TO.P,D1,1,VDD*
G04 #@! TO.N,+5V*
X153000000Y-66300000D03*
G04 #@! TO.P,D1,2,DOUT*
G04 #@! TO.N,Net-(D1-DOUT)*
X153000000Y-69600000D03*
G04 #@! TO.P,D1,3,VSS*
G04 #@! TO.N,GND*
X157900000Y-69600000D03*
G04 #@! TO.P,D1,4,DIN*
G04 #@! TO.N,/LED_Data*
X157900000Y-66300000D03*
G04 #@! TD*
G04 #@! TO.P,D8,1,VDD*
G04 #@! TO.N,+5V*
X131400000Y-85600000D03*
G04 #@! TO.P,D8,2,DOUT*
G04 #@! TO.N,Net-(D7-DIN)*
X131400000Y-88900000D03*
G04 #@! TO.P,D8,3,VSS*
G04 #@! TO.N,GND*
X136300000Y-88900000D03*
G04 #@! TO.P,D8,4,DIN*
G04 #@! TO.N,Net-(D8-DIN)*
X136300000Y-85600000D03*
G04 #@! TD*
G04 #@! TO.P,D4,1,VDD*
G04 #@! TO.N,+5V*
X158900000Y-84600000D03*
G04 #@! TO.P,D4,2,DOUT*
G04 #@! TO.N,Net-(D4-DOUT)*
X158900000Y-87900000D03*
G04 #@! TO.P,D4,3,VSS*
G04 #@! TO.N,GND*
X163800000Y-87900000D03*
G04 #@! TO.P,D4,4,DIN*
G04 #@! TO.N,Net-(D4-DIN)*
X163800000Y-84600000D03*
G04 #@! TD*
D17*
G04 #@! TO.P,U3,1,SW*
G04 #@! TO.N,Net-(U3-SW)*
X137700000Y-80750000D03*
G04 #@! TO.P,U3,2,GND*
G04 #@! TO.N,GND*
X137700000Y-81700000D03*
G04 #@! TO.P,U3,3,NC*
G04 #@! TO.N,unconnected-(U3-NC-Pad3)*
X137700000Y-82650000D03*
G04 #@! TO.P,U3,4,VOUT*
G04 #@! TO.N,+5V*
X139975000Y-82650000D03*
G04 #@! TO.P,U3,5,NC*
G04 #@! TO.N,unconnected-(U3-NC-Pad5)*
X139975000Y-80750000D03*
G04 #@! TD*
D14*
G04 #@! TO.P,D5,1,VDD*
G04 #@! TO.N,+5V*
X152000000Y-92000000D03*
G04 #@! TO.P,D5,2,DOUT*
G04 #@! TO.N,Net-(D4-DIN)*
X152000000Y-95300000D03*
G04 #@! TO.P,D5,3,VSS*
G04 #@! TO.N,GND*
X156900000Y-95300000D03*
G04 #@! TO.P,D5,4,DIN*
G04 #@! TO.N,Net-(D5-DIN)*
X156900000Y-92000000D03*
G04 #@! TD*
D18*
G04 #@! TO.P,C4,1*
G04 #@! TO.N,/VBat*
X161700000Y-79650000D03*
G04 #@! TO.P,C4,2*
G04 #@! TO.N,GND*
X161700000Y-78100000D03*
G04 #@! TD*
D14*
G04 #@! TO.P,D11,1,VDD*
G04 #@! TO.N,+5V*
X135000000Y-65900000D03*
G04 #@! TO.P,D11,2,DOUT*
G04 #@! TO.N,Net-(D10-DIN)*
X135000000Y-69200000D03*
G04 #@! TO.P,D11,3,VSS*
G04 #@! TO.N,GND*
X139900000Y-69200000D03*
G04 #@! TO.P,D11,4,DIN*
G04 #@! TO.N,Net-(D11-DIN)*
X139900000Y-65900000D03*
G04 #@! TD*
D19*
G04 #@! TO.P,L1,1,1*
G04 #@! TO.N,/VBat_switched*
X139300000Y-87700000D03*
G04 #@! TO.P,L1,2,2*
G04 #@! TO.N,Net-(U3-SW)*
X144153000Y-87700000D03*
G04 #@! TD*
D20*
G04 #@! TO.P,U4,1,GND*
G04 #@! TO.N,GND*
X152750000Y-84400000D03*
D21*
G04 #@! TO.P,U4,2,VO*
G04 #@! TO.N,+3V3*
X152837500Y-85900000D03*
D20*
G04 #@! TO.P,U4,3,VI*
G04 #@! TO.N,+5V*
X152750000Y-87400000D03*
G04 #@! TD*
D22*
G04 #@! TO.P,U1,1,PB7/PB8*
G04 #@! TO.N,unconnected-(U1-PB7{slash}PB8-Pad1)*
X153637500Y-75775000D03*
G04 #@! TO.P,U1,2,PC14/PB9*
G04 #@! TO.N,unconnected-(U1-PC14{slash}PB9-Pad2)*
X153637500Y-76425000D03*
G04 #@! TO.P,U1,3,PC15*
G04 #@! TO.N,unconnected-(U1-PC15-Pad3)*
X153637500Y-77075000D03*
G04 #@! TO.P,U1,4,VDD*
G04 #@! TO.N,+3V3*
X153637500Y-77725000D03*
G04 #@! TO.P,U1,5,VSS*
G04 #@! TO.N,GND*
X153637500Y-78375000D03*
G04 #@! TO.P,U1,6,NRST*
G04 #@! TO.N,/~{RST}*
X153637500Y-79025000D03*
G04 #@! TO.P,U1,7,PA0*
G04 #@! TO.N,unconnected-(U1-PA0-Pad7)*
X153637500Y-79675000D03*
G04 #@! TO.P,U1,8,PA1*
G04 #@! TO.N,unconnected-(U1-PA1-Pad8)*
X153637500Y-80325000D03*
G04 #@! TO.P,U1,9,PA2*
G04 #@! TO.N,unconnected-(U1-PA2-Pad9)*
X153637500Y-80975000D03*
G04 #@! TO.P,U1,10,PA3*
G04 #@! TO.N,unconnected-(U1-PA3-Pad10)*
X153637500Y-81625000D03*
G04 #@! TO.P,U1,11,PA4*
G04 #@! TO.N,/brightness*
X159362500Y-81625000D03*
G04 #@! TO.P,U1,12,PA5*
G04 #@! TO.N,/Gain Select*
X159362500Y-80975000D03*
G04 #@! TO.P,U1,13,PA6*
G04 #@! TO.N,/sda*
X159362500Y-80325000D03*
G04 #@! TO.P,U1,14,PA7*
G04 #@! TO.N,/scl*
X159362500Y-79675000D03*
G04 #@! TO.P,U1,15,PB0/PB1/PB2/PA8*
G04 #@! TO.N,/LED_Data*
X159362500Y-79025000D03*
G04 #@! TO.P,U1,16,PA11/PA9*
G04 #@! TO.N,unconnected-(U1-PA11{slash}PA9-Pad16)*
X159362500Y-78375000D03*
G04 #@! TO.P,U1,17,PA12/PA10*
G04 #@! TO.N,/trans*
X159362500Y-77725000D03*
G04 #@! TO.P,U1,18,PA13*
G04 #@! TO.N,/SWDIO*
X159362500Y-77075000D03*
G04 #@! TO.P,U1,19,PA14/PA15*
G04 #@! TO.N,/SWCLK*
X159362500Y-76425000D03*
G04 #@! TO.P,U1,20,PB3/PB4/PB5/PB6*
G04 #@! TO.N,unconnected-(U1-PB3{slash}PB4{slash}PB5{slash}PB6-Pad20)*
X159362500Y-75775000D03*
G04 #@! TD*
D15*
G04 #@! TO.P,R2,1*
G04 #@! TO.N,Net-(J1-CC1)*
X142450000Y-81600000D03*
G04 #@! TO.P,R2,2*
G04 #@! TO.N,GND*
X144100000Y-81600000D03*
G04 #@! TD*
D23*
G04 #@! TO.P,D13,1,K*
G04 #@! TO.N,+5V*
X133100000Y-81300000D03*
G04 #@! TO.P,D13,2,A*
G04 #@! TO.N,/VUSB*
X135300000Y-81300000D03*
G04 #@! TD*
D14*
G04 #@! TO.P,D9,1,VDD*
G04 #@! TO.N,+5V*
X125400000Y-77700000D03*
G04 #@! TO.P,D9,2,DOUT*
G04 #@! TO.N,Net-(D8-DIN)*
X125400000Y-81000000D03*
G04 #@! TO.P,D9,3,VSS*
G04 #@! TO.N,GND*
X130300000Y-81000000D03*
G04 #@! TO.P,D9,4,DIN*
G04 #@! TO.N,Net-(D4-DOUT)*
X130300000Y-77700000D03*
G04 #@! TD*
G04 #@! TO.P,D12,1,VDD*
G04 #@! TO.N,+5V*
X144200000Y-73400000D03*
G04 #@! TO.P,D12,2,DOUT*
G04 #@! TO.N,Net-(D11-DIN)*
X144200000Y-76700000D03*
G04 #@! TO.P,D12,3,VSS*
G04 #@! TO.N,GND*
X149100000Y-76700000D03*
G04 #@! TO.P,D12,4,DIN*
G04 #@! TO.N,Net-(D12-DIN)*
X149100000Y-73400000D03*
G04 #@! TD*
D15*
G04 #@! TO.P,R3,1*
G04 #@! TO.N,Net-(J1-CC2)*
X167250000Y-82900000D03*
G04 #@! TO.P,R3,2*
G04 #@! TO.N,GND*
X168900000Y-82900000D03*
G04 #@! TD*
D14*
G04 #@! TO.P,D3,1,VDD*
G04 #@! TO.N,+5V*
X164400000Y-76700000D03*
G04 #@! TO.P,D3,2,DOUT*
G04 #@! TO.N,Net-(D3-DOUT)*
X164400000Y-80000000D03*
G04 #@! TO.P,D3,3,VSS*
G04 #@! TO.N,GND*
X169300000Y-80000000D03*
G04 #@! TO.P,D3,4,DIN*
G04 #@! TO.N,Net-(D2-DOUT)*
X169300000Y-76700000D03*
G04 #@! TD*
D24*
G04 #@! TO.P,C7,1*
G04 #@! TO.N,+5V*
X134300000Y-74900000D03*
G04 #@! TO.P,C7,2*
G04 #@! TO.N,GND*
X137900000Y-74900000D03*
G04 #@! TD*
D25*
G04 #@! TO.N,+3V3*
X145805000Y-88600000D03*
X158800000Y-71600000D03*
G04 #@! TO.N,GND*
X136400000Y-81900000D03*
X154885000Y-78393000D03*
X162842579Y-89182516D03*
X167301400Y-79848400D03*
X138450000Y-69200000D03*
X134850000Y-88900000D03*
X150934000Y-82496600D03*
X155807000Y-96417500D03*
X131750000Y-81000000D03*
X148100000Y-78500000D03*
X143400000Y-84400000D03*
X152000000Y-72100000D03*
X145001000Y-80698700D03*
X170081900Y-83212500D03*
X156400000Y-71300000D03*
X160249000Y-71282900D03*
X148250000Y-102500000D03*
X139950000Y-74858600D03*
X146800000Y-95600000D03*
X156000000Y-76400000D03*
X168450000Y-71700000D03*
X132650000Y-71800000D03*
X143007000Y-96467400D03*
G04 #@! TO.N,+5V*
X150338000Y-90641500D03*
X148000000Y-84800000D03*
G04 #@! TO.N,/VBat*
X161380804Y-87533020D03*
X144891000Y-85483700D03*
D26*
G04 #@! TO.N,/LED_Data*
X159311000Y-66963500D03*
X158591000Y-74185700D03*
G04 #@! TO.N,Net-(D4-DOUT)*
X151088000Y-78877000D03*
X157540100Y-83437500D03*
X150900000Y-75700000D03*
X148106000Y-75701700D03*
G04 #@! TO.N,Net-(D4-DIN)*
X153236794Y-94407646D03*
X154512861Y-88930622D03*
G04 #@! TO.N,Net-(D12-DIN)*
X140780000Y-92760700D03*
X144893000Y-75138400D03*
G04 #@! TO.N,Net-(D8-DIN)*
X127244000Y-81086100D03*
X130983000Y-84058000D03*
G04 #@! TO.N,Net-(D11-DIN)*
X143572000Y-74725200D03*
X142964000Y-67674600D03*
D25*
G04 #@! TO.N,/VUSB*
X141540000Y-87196800D03*
X141540000Y-79658300D03*
X148881000Y-92038200D03*
X147700000Y-89700000D03*
X154372251Y-91827825D03*
X150600000Y-93842400D03*
D26*
G04 #@! TO.N,Net-(J1-CC1)*
X143604000Y-80414800D03*
G04 #@! TO.N,/SWDIO*
X157972000Y-76913500D03*
G04 #@! TO.N,/SWCLK*
X160453000Y-74822700D03*
G04 #@! TO.N,/~{RST}*
X157987200Y-79805800D03*
D25*
G04 #@! TO.N,/VBat_switched*
X131800000Y-78800000D03*
D26*
G04 #@! TO.N,/brightness*
X156394000Y-83551200D03*
G04 #@! TO.N,Net-(J1-CC2)*
X159944200Y-82669200D03*
X165945400Y-82621300D03*
X158493900Y-82976900D03*
G04 #@! TD*
D27*
G04 #@! TO.N,+3V3*
X152200000Y-75340900D02*
X154441000Y-73100000D01*
X158025000Y-73100000D02*
X158025000Y-72375000D01*
X149820000Y-89391500D02*
X150302000Y-89391500D01*
X151038000Y-86962500D02*
X152100000Y-85900000D01*
X145805000Y-88600000D02*
X145804000Y-88600000D01*
X153225000Y-82525000D02*
X152666000Y-82525000D01*
X145805000Y-89572300D02*
X147182000Y-90950000D01*
X154441000Y-73100000D02*
X158025000Y-73100000D01*
X154100000Y-83400000D02*
X153225000Y-82525000D01*
X154199700Y-85450300D02*
X153750000Y-85900000D01*
X151038000Y-88656200D02*
X151038000Y-86962500D01*
X150302000Y-89391500D02*
X151038000Y-88656200D01*
D28*
X153637500Y-77725000D02*
X153638000Y-77725000D01*
D27*
X152100000Y-85900000D02*
X152837500Y-85900000D01*
X145805000Y-88600000D02*
X145805000Y-89572300D01*
X148262000Y-90950000D02*
X149820000Y-89391500D01*
X154100000Y-83400000D02*
X154199700Y-83499700D01*
X147182000Y-90950000D02*
X148262000Y-90950000D01*
X152837500Y-85900000D02*
X153750000Y-85900000D01*
X158025000Y-72375000D02*
X158800000Y-71600000D01*
X152200000Y-82059100D02*
X152200000Y-77725000D01*
D28*
X152200000Y-77725000D02*
X153637500Y-77725000D01*
D27*
X154199700Y-83499700D02*
X154199700Y-85450300D01*
X152200000Y-77725000D02*
X152200000Y-75340900D01*
X152666000Y-82525000D02*
X152200000Y-82059100D01*
G04 #@! TO.N,GND*
X155807000Y-96417500D02*
X156900000Y-95324500D01*
X149750000Y-76036800D02*
X149750000Y-75223700D01*
X169300000Y-80000000D02*
X167453000Y-80000000D01*
D28*
X154867000Y-78375000D02*
X154885000Y-78393000D01*
D27*
X159350000Y-69600000D02*
X159350000Y-70383800D01*
X145303000Y-80396600D02*
X145303100Y-80396600D01*
D29*
X145880000Y-85179500D02*
X145100000Y-84400000D01*
D27*
X139950000Y-74858600D02*
X137941000Y-74858600D01*
X149750000Y-76850000D02*
X149750000Y-76036800D01*
D29*
X154885000Y-77515000D02*
X156000000Y-76400000D01*
D27*
X143800000Y-95300000D02*
X145000000Y-94100000D01*
X149750000Y-76036800D02*
X149100000Y-76686800D01*
X145001000Y-80698700D02*
X145303000Y-80396600D01*
X165553000Y-78100000D02*
X161700000Y-78100000D01*
X149750000Y-75223700D02*
X152000000Y-72973700D01*
X169212500Y-83212500D02*
X168900000Y-82900000D01*
X150934000Y-81334400D02*
X148100000Y-78500000D01*
D28*
X153638000Y-78375000D02*
X153637500Y-78375000D01*
D29*
X147400000Y-87200000D02*
X146833000Y-87200000D01*
X146833000Y-87200000D02*
X145880000Y-86246200D01*
D27*
X163800000Y-88225095D02*
X162842579Y-89182516D01*
X131200000Y-71800000D02*
X132650000Y-71800000D01*
X163800000Y-87900000D02*
X163800000Y-88225095D01*
X149100000Y-76686800D02*
X149100000Y-76700000D01*
X148100000Y-78500000D02*
X149750000Y-76850000D01*
X167301400Y-79848400D02*
X165553000Y-78100000D01*
D28*
X153638000Y-78375000D02*
X154867000Y-78375000D01*
D27*
X139900000Y-69200000D02*
X138450000Y-69200000D01*
X136300000Y-88900000D02*
X134850000Y-88900000D01*
X167453000Y-80000000D02*
X167301400Y-79848400D01*
D29*
X157900000Y-69800000D02*
X156400000Y-71300000D01*
X157900000Y-69600000D02*
X157900000Y-69800000D01*
D27*
X152650000Y-84300000D02*
X152750000Y-84400000D01*
X143007000Y-95300000D02*
X143800000Y-95300000D01*
X160249000Y-72425800D02*
X159575000Y-73100000D01*
X160249000Y-71282900D02*
X160249000Y-72425800D01*
X157900000Y-69600000D02*
X159350000Y-69600000D01*
X137941000Y-74858600D02*
X137900000Y-74900000D01*
X159350000Y-70383800D02*
X160249000Y-71282900D01*
D29*
X146800000Y-95600000D02*
X146500000Y-95600000D01*
X137700000Y-81700000D02*
X136600000Y-81700000D01*
D27*
X143007000Y-96467400D02*
X143007000Y-95300000D01*
X147200000Y-78500000D02*
X148100000Y-78500000D01*
X147450000Y-81365500D02*
X147450000Y-81600000D01*
X150950000Y-84300000D02*
X152650000Y-84300000D01*
X150934000Y-82496600D02*
X150934000Y-84284400D01*
D29*
X136600000Y-81700000D02*
X136400000Y-81900000D01*
D27*
X145001000Y-80698700D02*
X145303100Y-80396600D01*
D29*
X145100000Y-84400000D02*
X143400000Y-84400000D01*
D27*
X149700000Y-102500000D02*
X148250000Y-102500000D01*
D29*
X146500000Y-95600000D02*
X145000000Y-94100000D01*
D27*
X147400000Y-81650000D02*
X147400000Y-83400000D01*
X150934000Y-82496600D02*
X150934000Y-81334400D01*
X130300000Y-81000000D02*
X131750000Y-81000000D01*
X145303100Y-80396600D02*
X147200000Y-78500000D01*
X167000000Y-71700000D02*
X168450000Y-71700000D01*
X147450000Y-81600000D02*
X147400000Y-81650000D01*
X145303100Y-80396600D02*
X146481000Y-80396600D01*
D29*
X145880000Y-86246200D02*
X145880000Y-85179500D01*
X154885000Y-78393000D02*
X154885000Y-77515000D01*
D27*
X156900000Y-95324500D02*
X156900000Y-95300000D01*
X170081900Y-83212500D02*
X169212500Y-83212500D01*
X142200000Y-95300000D02*
X143007000Y-95300000D01*
X152000000Y-72973700D02*
X152000000Y-72100000D01*
X144100000Y-81600000D02*
X145001000Y-80698700D01*
X146481000Y-80396600D02*
X147450000Y-81365500D01*
X150934000Y-84284400D02*
X150950000Y-84300000D01*
G04 #@! TO.N,+5V*
X135000000Y-65900000D02*
X133550000Y-65900000D01*
X128837000Y-81757500D02*
X128837000Y-79687000D01*
X154295000Y-70755400D02*
X151550000Y-70755400D01*
X153000000Y-66300000D02*
X151550000Y-66300000D01*
X150500000Y-92050200D02*
X150338000Y-92050200D01*
X148600000Y-94100000D02*
X150338000Y-92362000D01*
X138978000Y-99200000D02*
X144800000Y-99200000D01*
X156692000Y-68357800D02*
X154295000Y-70755400D01*
X150338000Y-92050200D02*
X150338000Y-90641500D01*
X135836000Y-96058100D02*
X138978000Y-99200000D01*
X167341000Y-74275400D02*
X163550000Y-70484800D01*
X170750000Y-75907900D02*
X169118000Y-74275400D01*
X145900000Y-83350000D02*
X145850000Y-83400000D01*
X132325000Y-82224900D02*
X129858000Y-82224900D01*
X129950000Y-89655400D02*
X132294000Y-92000000D01*
X145650000Y-73400000D02*
X148295000Y-70755400D01*
X163550000Y-70484800D02*
X163550000Y-68400000D01*
X145600000Y-83150000D02*
X145850000Y-83400000D01*
X152750000Y-88640800D02*
X150749000Y-90641500D01*
X129858000Y-82224900D02*
X129304000Y-82224900D01*
X126300000Y-68500000D02*
X127750000Y-68500000D01*
X135836000Y-92000000D02*
X135836000Y-96058100D01*
X148295000Y-70755400D02*
X151550000Y-70755400D01*
X127750000Y-70608100D02*
X127750000Y-68500000D01*
X150550000Y-92000000D02*
X150500000Y-92050200D01*
X132042000Y-74900000D02*
X131407000Y-74264600D01*
X133000000Y-81550000D02*
X132325000Y-82224900D01*
X131400000Y-85600000D02*
X129950000Y-85600000D01*
X145850000Y-83875000D02*
X146775000Y-84800000D01*
X163550000Y-68400000D02*
X162100000Y-68400000D01*
X169118000Y-74275400D02*
X167341000Y-74275400D01*
X157003000Y-87500000D02*
X152850000Y-87500000D01*
X129200000Y-67050100D02*
X127750000Y-68500000D01*
D30*
X133000000Y-81550000D02*
X133000000Y-81400200D01*
D27*
X135847000Y-76446800D02*
X140080000Y-76446800D01*
X134300000Y-74900000D02*
X135847000Y-76446800D01*
X135836000Y-92000000D02*
X137300000Y-92000000D01*
X158900000Y-84600000D02*
X157449900Y-84600000D01*
X129950000Y-85600000D02*
X129950000Y-89655400D01*
X139975000Y-82650000D02*
X140475000Y-83150000D01*
X144800000Y-99200000D02*
X145100000Y-99200000D01*
X160650000Y-68400000D02*
X160608000Y-68357800D01*
X129389000Y-76282600D02*
X128268000Y-76282600D01*
X164400000Y-76700000D02*
X165850000Y-76700000D01*
X150749000Y-90641500D02*
X150338000Y-90641500D01*
X152850000Y-87500000D02*
X152750000Y-87400000D01*
X129304000Y-82224900D02*
X128837000Y-81757500D01*
X144200000Y-73400000D02*
X145650000Y-73400000D01*
X145100000Y-99200000D02*
X148600000Y-95700000D01*
X132400000Y-67050100D02*
X129200000Y-67050100D01*
X125400000Y-77700000D02*
X126850000Y-77700000D01*
X133550000Y-65900000D02*
X132400000Y-67050100D01*
D30*
X133000000Y-81400200D02*
X133100000Y-81300000D01*
D27*
X132294000Y-92000000D02*
X135836000Y-92000000D01*
X134300000Y-74900000D02*
X132042000Y-74900000D01*
X131407000Y-74264600D02*
X129389000Y-76282600D01*
X129858000Y-85507700D02*
X129950000Y-85600000D01*
X152750000Y-87400000D02*
X152750000Y-88640800D01*
X150338000Y-92362000D02*
X150338000Y-92050200D01*
X152000000Y-92000000D02*
X150550000Y-92000000D01*
X157449900Y-87053100D02*
X157003000Y-87500000D01*
X145900000Y-81600000D02*
X145900000Y-83350000D01*
X145850000Y-83400000D02*
X145850000Y-83875000D01*
X148600000Y-95700000D02*
X148600000Y-94100000D01*
X165850000Y-76700000D02*
X167000000Y-77850200D01*
X140080000Y-76446800D02*
X142750000Y-73777400D01*
X151550000Y-66300000D02*
X151550000Y-70755400D01*
X129858000Y-82224900D02*
X129858000Y-85507700D01*
X167000000Y-77850200D02*
X170360000Y-77850200D01*
X160608000Y-68357800D02*
X156692000Y-68357800D01*
X170750000Y-77459800D02*
X170750000Y-75907900D01*
X157449900Y-84600000D02*
X157449900Y-87053100D01*
X142750000Y-73777400D02*
X142750000Y-73400000D01*
X128837000Y-79687000D02*
X126850000Y-77700000D01*
X170360000Y-77850200D02*
X170750000Y-77459800D01*
X162100000Y-68400000D02*
X160650000Y-68400000D01*
X140475000Y-83150000D02*
X145600000Y-83150000D01*
X142750000Y-73400000D02*
X144200000Y-73400000D01*
X128268000Y-76282600D02*
X126850000Y-77700000D01*
X131407000Y-74264600D02*
X127750000Y-70608100D01*
X146775000Y-84800000D02*
X148000000Y-84800000D01*
G04 #@! TO.N,/VBat*
X160840900Y-83328300D02*
X160840900Y-86993116D01*
X160840900Y-86993116D02*
X161380804Y-87533020D01*
D29*
X145430000Y-86021900D02*
X144891000Y-85483700D01*
X146738000Y-88150000D02*
X145430000Y-86842000D01*
X145430000Y-86842000D02*
X145430000Y-86021900D01*
X147400000Y-88150000D02*
X146738000Y-88150000D01*
D27*
X161700000Y-82469200D02*
X160840900Y-83328300D01*
X161700000Y-79650000D02*
X161700000Y-82469200D01*
D29*
G04 #@! TO.N,Net-(D1-DOUT)*
X158922000Y-65505400D02*
X160424000Y-67006800D01*
X154075000Y-68423200D02*
X156993000Y-65505400D01*
X153000000Y-69600000D02*
X154075000Y-69600000D01*
X165925000Y-68400000D02*
X167000000Y-68400000D01*
X156993000Y-65505400D02*
X158922000Y-65505400D01*
X154075000Y-69600000D02*
X154075000Y-68423200D01*
X164532000Y-67006800D02*
X165925000Y-68400000D01*
X160424000Y-67006800D02*
X164532000Y-67006800D01*
G04 #@! TO.N,/LED_Data*
X159362000Y-79025000D02*
X158624000Y-79025000D01*
X158975000Y-66627300D02*
X158975000Y-66300000D01*
X157235000Y-77635400D02*
X157235000Y-75541600D01*
X159362000Y-79025000D02*
X159362500Y-79025000D01*
X158624000Y-79025000D02*
X157235000Y-77635400D01*
X158975000Y-66300000D02*
X157900000Y-66300000D01*
X157235000Y-75541600D02*
X158591000Y-74185700D01*
X159311000Y-66963500D02*
X158975000Y-66627300D01*
G04 #@! TO.N,Net-(D2-DOUT)*
X163225000Y-71700000D02*
X162100000Y-71700000D01*
X168225000Y-76700000D02*
X163225000Y-71700000D01*
X169300000Y-76700000D02*
X168225000Y-76700000D01*
G04 #@! TO.N,Net-(D3-DOUT)*
X157415500Y-93065700D02*
X157721957Y-93065700D01*
X164556700Y-85424800D02*
X164636300Y-85424800D01*
X149700000Y-99200000D02*
X151282000Y-99200000D01*
X164916600Y-81333600D02*
X164400000Y-80817000D01*
X164636300Y-85424800D02*
X164916600Y-85144500D01*
X164916600Y-85144500D02*
X164916600Y-81333600D01*
X151282000Y-99200000D02*
X157415500Y-93065700D01*
X162705804Y-88081853D02*
X162705804Y-87827470D01*
X164400000Y-80817000D02*
X164400000Y-80000000D01*
X162725000Y-87256500D02*
X164556700Y-85424800D01*
X162705804Y-87827470D02*
X162725000Y-87808274D01*
X162725000Y-87808274D02*
X162725000Y-87256500D01*
X157721957Y-93065700D02*
X162705804Y-88081853D01*
X157415500Y-93065700D02*
X157706000Y-92775200D01*
G04 #@! TO.N,Net-(D4-DOUT)*
X150817000Y-78605300D02*
X150817000Y-77525000D01*
X148150000Y-75745700D02*
X148150000Y-75800000D01*
X158900000Y-87900000D02*
X159975100Y-87900000D01*
X150817000Y-77525000D02*
X151375000Y-76966700D01*
X148106000Y-75701700D02*
X148150000Y-75745700D01*
X157804600Y-83702000D02*
X159756100Y-83702000D01*
X151375000Y-76283300D02*
X150892000Y-75800000D01*
X159756100Y-83702000D02*
X159975100Y-83921000D01*
X146250000Y-77700000D02*
X148150000Y-75800000D01*
X130300000Y-77700000D02*
X146250000Y-77700000D01*
X159975100Y-83921000D02*
X159975100Y-87900000D01*
X150892000Y-75708200D02*
X150900000Y-75700000D01*
X150892000Y-75800000D02*
X150892000Y-75708200D01*
X157540100Y-83437500D02*
X157804600Y-83702000D01*
X151375000Y-76966700D02*
X151375000Y-76283300D01*
X151088000Y-78877000D02*
X150817000Y-78605300D01*
G04 #@! TO.N,Net-(D4-DIN)*
X161220639Y-88930622D02*
X154512861Y-88930622D01*
X152344440Y-95300000D02*
X153236794Y-94407646D01*
X163800000Y-85473800D02*
X162210726Y-87063074D01*
X163800000Y-84600000D02*
X163800000Y-85473800D01*
X162210726Y-87063074D02*
X162210726Y-87595996D01*
X152000000Y-95300000D02*
X152344440Y-95300000D01*
X162255804Y-87641074D02*
X162255804Y-87895457D01*
X162255804Y-87895457D02*
X161220639Y-88930622D01*
X162210726Y-87595996D02*
X162255804Y-87641074D01*
G04 #@! TO.N,Net-(D5-DIN)*
X151454000Y-98145800D02*
X149079000Y-98145800D01*
X144800000Y-102425000D02*
X144800000Y-102500000D01*
X149079000Y-98145800D02*
X144800000Y-102425000D01*
X156900000Y-92700000D02*
X156900000Y-92000000D01*
X156900000Y-92700000D02*
X151454000Y-98145800D01*
G04 #@! TO.N,Net-(D12-DIN)*
X149100000Y-73400000D02*
X148025000Y-73400000D01*
X148025000Y-73400000D02*
X146286000Y-75138400D01*
X138375000Y-95300000D02*
X140780000Y-92894700D01*
X146286000Y-75138400D02*
X144893000Y-75138400D01*
X140780000Y-92894700D02*
X140780000Y-92760700D01*
X137300000Y-95300000D02*
X138375000Y-95300000D01*
G04 #@! TO.N,Net-(D7-DIN)*
X141125000Y-92000000D02*
X142200000Y-92000000D01*
X134612000Y-91036700D02*
X140162000Y-91036700D01*
X140162000Y-91036700D02*
X141125000Y-92000000D01*
X132475000Y-88900000D02*
X134612000Y-91036700D01*
X131400000Y-88900000D02*
X132475000Y-88900000D01*
G04 #@! TO.N,Net-(D8-DIN)*
X135225000Y-85600000D02*
X133683000Y-84058000D01*
X125400000Y-81000000D02*
X127158000Y-81000000D01*
X136300000Y-85600000D02*
X135225000Y-85600000D01*
X133683000Y-84058000D02*
X130983000Y-84058000D01*
X127158000Y-81000000D02*
X127244000Y-81086100D01*
G04 #@! TO.N,Net-(D10-DIN)*
X131200000Y-68500000D02*
X132275000Y-68500000D01*
X132975000Y-69200000D02*
X135000000Y-69200000D01*
X132275000Y-68500000D02*
X132975000Y-69200000D01*
G04 #@! TO.N,Net-(D11-DIN)*
X140975000Y-65900000D02*
X139900000Y-65900000D01*
X144200000Y-76700000D02*
X143125000Y-76700000D01*
X142750000Y-67674600D02*
X140975000Y-65900000D01*
X143125000Y-75172200D02*
X143572000Y-74725200D01*
X143125000Y-76700000D02*
X143125000Y-75172200D01*
X142964000Y-67674600D02*
X142750000Y-67674600D01*
D27*
G04 #@! TO.N,/VUSB*
X135438000Y-81038700D02*
X136819000Y-79658300D01*
X152942665Y-93257646D02*
X155000000Y-91200000D01*
X151184754Y-93257646D02*
X152942665Y-93257646D01*
X141540000Y-88423700D02*
X145267000Y-92150200D01*
X141540000Y-87196800D02*
X141540000Y-88423700D01*
X149675000Y-88150000D02*
X149336000Y-88150000D01*
X148769000Y-92150200D02*
X148881000Y-92038200D01*
D30*
X135438000Y-81161500D02*
X135300000Y-81300000D01*
D27*
X145267000Y-92150200D02*
X148769000Y-92150200D01*
X136819000Y-79658300D02*
X141540000Y-79658300D01*
X135438000Y-81161500D02*
X135438000Y-81038700D01*
X149336000Y-88150000D02*
X147786000Y-89700000D01*
X147786000Y-89700000D02*
X147700000Y-89700000D01*
X150600000Y-93842400D02*
X151184754Y-93257646D01*
D29*
G04 #@! TO.N,Net-(J1-CC1)*
X143604000Y-80414800D02*
X142450000Y-81568500D01*
X142450000Y-81568500D02*
X142450000Y-81600000D01*
G04 #@! TO.N,/SWDIO*
X159362000Y-77075000D02*
X159362500Y-77075000D01*
X157972000Y-76913500D02*
X158134000Y-77075000D01*
X158134000Y-77075000D02*
X159362000Y-77075000D01*
G04 #@! TO.N,/SWCLK*
X160453000Y-74822700D02*
X160453000Y-76096800D01*
X160453000Y-76096800D02*
X160125000Y-76425000D01*
X159362500Y-76425000D02*
X159362000Y-76425000D01*
X160125000Y-76425000D02*
X159362500Y-76425000D01*
G04 #@! TO.N,/~{RST}*
X155109400Y-79805800D02*
X157987200Y-79805800D01*
X155077800Y-79774200D02*
X155109400Y-79805800D01*
X153638000Y-79025000D02*
X153637500Y-79025000D01*
X154329000Y-79025000D02*
X155077800Y-79774200D01*
X153638000Y-79025000D02*
X154329000Y-79025000D01*
D27*
G04 #@! TO.N,/VBat_switched*
X132020000Y-78800000D02*
X134200000Y-80979800D01*
X134200000Y-81620200D02*
X136980000Y-84400000D01*
X138395000Y-84400000D02*
X139300000Y-85305000D01*
X131800000Y-78800000D02*
X132020000Y-78800000D01*
X134200000Y-80979800D02*
X134200000Y-81620200D01*
X136980000Y-84400000D02*
X138395000Y-84400000D01*
X139300000Y-85305000D02*
X139300000Y-87700000D01*
D29*
G04 #@! TO.N,Net-(U3-SW)*
X142876000Y-87700000D02*
X142876000Y-87366200D01*
X138801000Y-81462600D02*
X138088000Y-80750000D01*
X138801000Y-83290900D02*
X138801000Y-81462600D01*
X138088000Y-80750000D02*
X137700000Y-80750000D01*
X142876000Y-87366200D02*
X138801000Y-83290900D01*
X144153000Y-87700000D02*
X142876000Y-87700000D01*
G04 #@! TO.N,Net-(U2-PROG)*
X149300000Y-84300000D02*
X149300000Y-85875000D01*
X149300000Y-85875000D02*
X149675000Y-86250000D01*
G04 #@! TO.N,/brightness*
X159362500Y-81625000D02*
X158320200Y-81625000D01*
X158320200Y-81625000D02*
X156394000Y-83551200D01*
G04 #@! TO.N,Net-(J1-CC2)*
X159944200Y-82669200D02*
X158801600Y-82669200D01*
X158801600Y-82669200D02*
X158493900Y-82976900D01*
X166971300Y-82621300D02*
X167250000Y-82900000D01*
X165945400Y-82621300D02*
X166971300Y-82621300D01*
G04 #@! TD*
M02*
