G04 #@! TF.GenerationSoftware,KiCad,Pcbnew,8.0.5*
G04 #@! TF.CreationDate,2024-09-23T19:13:39-07:00*
G04 #@! TF.ProjectId,class 2a,636c6173-7320-4326-912e-6b696361645f,rev?*
G04 #@! TF.SameCoordinates,Original*
G04 #@! TF.FileFunction,Soldermask,Bot*
G04 #@! TF.FilePolarity,Negative*
%FSLAX46Y46*%
G04 Gerber Fmt 4.6, Leading zero omitted, Abs format (unit mm)*
G04 Created by KiCad (PCBNEW 8.0.5) date 2024-09-23 19:13:39*
%MOMM*%
%LPD*%
G01*
G04 APERTURE LIST*
G04 Aperture macros list*
%AMRoundRect*
0 Rectangle with rounded corners*
0 $1 Rounding radius*
0 $2 $3 $4 $5 $6 $7 $8 $9 X,Y pos of 4 corners*
0 Add a 4 corners polygon primitive as box body*
4,1,4,$2,$3,$4,$5,$6,$7,$8,$9,$2,$3,0*
0 Add four circle primitives for the rounded corners*
1,1,$1+$1,$2,$3*
1,1,$1+$1,$4,$5*
1,1,$1+$1,$6,$7*
1,1,$1+$1,$8,$9*
0 Add four rect primitives between the rounded corners*
20,1,$1+$1,$2,$3,$4,$5,0*
20,1,$1+$1,$4,$5,$6,$7,0*
20,1,$1+$1,$6,$7,$8,$9,0*
20,1,$1+$1,$8,$9,$2,$3,0*%
G04 Aperture macros list end*
%ADD10C,2.500000*%
%ADD11RoundRect,0.125000X0.225000X0.125000X-0.225000X0.125000X-0.225000X-0.125000X0.225000X-0.125000X0*%
%ADD12RoundRect,0.125000X0.275000X0.125000X-0.275000X0.125000X-0.275000X-0.125000X0.275000X-0.125000X0*%
%ADD13RoundRect,0.250000X1.250000X0.550000X-1.250000X0.550000X-1.250000X-0.550000X1.250000X-0.550000X0*%
%ADD14RoundRect,0.250000X-1.250000X-0.550000X1.250000X-0.550000X1.250000X0.550000X-1.250000X0.550000X0*%
%ADD15R,1.000000X0.800000*%
%ADD16C,0.900000*%
%ADD17R,0.700000X1.500000*%
%ADD18R,2.400000X0.740000*%
%ADD19RoundRect,0.250000X0.250000X1.500000X-0.250000X1.500000X-0.250000X-1.500000X0.250000X-1.500000X0*%
%ADD20RoundRect,0.250001X0.499999X1.449999X-0.499999X1.449999X-0.499999X-1.449999X0.499999X-1.449999X0*%
%ADD21C,0.650000*%
%ADD22RoundRect,0.150000X-0.194454X0.406586X-0.406586X0.194454X0.194454X-0.406586X0.406586X-0.194454X0*%
%ADD23RoundRect,0.075000X-0.300520X0.406586X-0.406586X0.300520X0.300520X-0.406586X0.406586X-0.300520X0*%
%ADD24RoundRect,0.250000X0.063640X1.124300X-1.124300X-0.063640X-0.063640X-1.124300X1.124300X0.063640X0*%
G04 APERTURE END LIST*
D10*
G04 #@! TO.C,H2*
X162300000Y-64500000D03*
G04 #@! TD*
G04 #@! TO.C,H1*
X131200000Y-64600000D03*
G04 #@! TD*
D11*
G04 #@! TO.C,RV1*
X139390000Y-90280000D03*
X132020000Y-90280000D03*
D12*
X128690000Y-87910000D03*
X142790000Y-89090000D03*
X142800000Y-87900000D03*
X128690000Y-89040000D03*
G04 #@! TD*
D13*
G04 #@! TO.C,C6*
X160400000Y-69300000D03*
X156000000Y-69300000D03*
G04 #@! TD*
D14*
G04 #@! TO.C,C5*
X149200000Y-87500000D03*
X153600000Y-87500000D03*
G04 #@! TD*
D15*
G04 #@! TO.C,SW1*
X123850000Y-73545000D03*
X123850000Y-75755000D03*
D16*
X126000000Y-74645000D03*
X129000000Y-74645000D03*
D15*
X131150000Y-73545000D03*
X131150000Y-75755000D03*
D17*
X125250000Y-76405000D03*
X128250000Y-76405000D03*
X129750000Y-76405000D03*
G04 #@! TD*
D18*
G04 #@! TO.C,J3*
X166500000Y-73160000D03*
X162600000Y-73160000D03*
X166500000Y-74430000D03*
X162600000Y-74430000D03*
X166500000Y-75700000D03*
X162600000Y-75700000D03*
X166500000Y-76970000D03*
X162600000Y-76970000D03*
X166500000Y-78240000D03*
X162600000Y-78240000D03*
G04 #@! TD*
D19*
G04 #@! TO.C,J2*
X147600000Y-94850000D03*
X145600000Y-94850000D03*
D20*
X149950000Y-100600000D03*
X143250000Y-100600000D03*
G04 #@! TD*
D21*
G04 #@! TO.C,J1*
X162156725Y-85767148D03*
X158069648Y-89854225D03*
D22*
X161615789Y-84787805D03*
X161050103Y-85353491D03*
D23*
X160236931Y-86166664D03*
X159529824Y-86873770D03*
X159176270Y-87227324D03*
X158469164Y-87934431D03*
D22*
X157655991Y-88747603D03*
X157090305Y-89313289D03*
X157090305Y-89313289D03*
X157655991Y-88747603D03*
D23*
X158115610Y-88287984D03*
X158822717Y-87580877D03*
X159883377Y-86520217D03*
X160590484Y-85813110D03*
D22*
X161050103Y-85353491D03*
X161615789Y-84787805D03*
D24*
X166151879Y-86622747D03*
X163372949Y-83843818D03*
X158925247Y-93849379D03*
X156146318Y-91070449D03*
G04 #@! TD*
M02*
